<svg xmlns="http://www.w3.org/2000/svg" width="793.7008" height="559.3701" viewBox="0 0 595.2756 419.5276"><defs><clipPath id="a"><path d="M103 32h332v356H103zm0 0"/></clipPath><clipPath id="b"><path d="M226.1836 360.082c2.7031 1.0938 7.8633 4.4532 11.289 6.086 1.6797.8007 2.9766.9922 4.0235 2.2968 1.5742.0899 11.875 4.8633 14.5586 5.918 34.2812 13.5 75.332 18.6445 108.832 3.8203 3.836-1.6992 11.668-5.582 15.1328-7.8594l5.4805-3.6484c1.1875-.668 1.754-.871 2.6758-1.582l5.2265-3.9844c2.918-1.8047 2.1836-1.7656 3.8594-3.1367l10.957-9.8594 8.9493-10.5273c8.9336-12.3868 15.7422-26.086 17.7695-42.457-.7266.91-.254.164-.7813 1.5507-.203.5352-.3593 1.1524-.5703 1.8672-5.3593 17.9258-22.543 38.418-36.2968 49.879-.0704.0546-.1758.1327-.2461.1913l-19.7813 14.707c-1.3945 1.0079-3.0898 1.4297-5.0703 2.5508-30.1914 17.0664-72.2969 19.0664-105.4883 7.129-15.336-5.5118-32.621-15.957-44.5586-24.6329-15.2851-11.1094-22.9492-21.5117-31.1562-34.4648-10.3867-16.3828-29.5352-20.1875-48.004-16.5195-11.453 2.2773-33.5077 14.4843-39.4413 24.3476 2.1484-.414 3.3125-1.4101 8.4218-2.2617 3.1641-.5274 6.211-.711 9.5079-.8867 27.2148-1.457 43.1289 3.9062 66.4882 16.8007 2.957 1.6329 35.5235 21.9727 38.2227 24.6758zm-37.6172-154.9257c-1.2266 3.3906-4.5273 13.3007-4.9453 14.8867-6.211 23.7578-4.4883 52.371 6.5703 73.6836.914 1.7578 1.6836 4.125 2.664 6.1328 13.8907 28.4687 40.1212 55.0586 72.1055 66.0625 13.2774 4.5664 19.1524 4.7695 32.0625 5.2695-5.4453-1.539-10.3984-2.3633-15.6836-4.086-13.6914-4.4648-24.3984-11.5195-35.1367-19.953-19.8828-15.6212-29.961-25.4141-40.3398-46.711-1.0313-2.1172-1.8399-3.5273-2.5547-5.832-.6133-1.961-1.3086-3.539-2.082-5.8164-8.4649-24.875-11.2657-45.75-3.5118-71.8086 1.2618-4.2344 2.8086-8.086 4.0977-12.1563l.1758-.0156c.0351-.3125.0742-.6172.1172-.9219.125-.414.246-.832.3672-1.2539l-.172.0196c1.9415-10.8477 9.0196-18.9727 16.5274-29.2344 14.9531-20.4375 25.6172-25.5313 41.8399-39.5274 21.6054-18.6367 53.7656-35.3593 43.7148-66.1406-8.5742-26.2656-42.9297-31.5117-68.914-35.4023.25 1.6562-.0665.9375 1.9101 1.9218 29.3086 14.543 41.6094 43.7032 26.9297 75.4453-5.2227 11.293-12.9414 19.8946-21.9805 27.5704-12.9492 10.996-18.4531 14.0312-32.0312 29.6601-5.1055 5.875-21.2266 29.7852-21.7305 38.207zm-53.8047 61.664c7.254 10.8555 17.207 18.2578 29.7305 23.9805 10.7773 4.9219 11.7422.746 10.8828-9.8008-1.6953-20.8086-15.418-35.2656-32.0547-45.0703-25.7344-15.1719-14.75 21.625-8.5586 30.8906"/></clipPath><clipPath id="d"><path d="M368 116h124v146H368zm0 0"/></clipPath><clipPath id="e"><path d="M449.0234 178.3828c-2.0039-.3008-7.2421-1.0508-8.996-.6367-5.582 1.3281-.957 11.25.703 14.4531 7.168 13.8281 20.711 20.289 37.1837 22.2305 4.8203.5703 15.4062 2.5039 13.6132-4.6367-3.4023-13.5743-23.9804-28.629-42.5039-31.4102zm-26.3046 37.5078l.332 2.0586c.0234.75.043 1.4844.1015 2.0625.4805 4.6211 2.8594 11 2.8907 11.836.3554.328.086-.0079.4336.543.4687.7382 2.2187 4.9882 4.1718 7.996 3.6368 5.6016 16.1563 20.793 21.2774 21.25 6.4687.582 7.6875-16.082 7.5937-20.7851-.3476-16.9766-9.5195-31.672-21.3476-43.1563-1.9492-1.8945-1.6602-1.3398-2.1367-4.2812-1.8282-11.2891-5.875-22.1485-11.336-31.8516-9.4101-16.7148-39.6406-40.3984-56.1914-44.5977.8985 1.2188 9.4961 6.9102 13.1094 9.6133 23.2969 17.3985 32.7148 31.1719 43.1484 57.664.914 2.3165 1.586 4.297 2.4883 6.7813 1.539 4.2422 1.5313 2.5743-.5781 7.4336-4.168 9.5899-3.086 15.0743-3.957 17.4336"/></clipPath><linearGradient id="c" gradientUnits="userSpaceOnUse" x1="181.3943" y1="403.423" x2="267.3594" y2="-8.4756" gradientTransform="matrix(1 0 0 -1 0 419.5276)"><stop offset="0" stop-color="#1e7d2c"/><stop offset=".1609" stop-color="#1e7d2c"/><stop offset=".5" stop-color="#1e7d2c"/><stop offset=".5313" stop-color="#1e7d2c"/><stop offset=".5469" stop-color="#1e7d2c"/><stop offset=".5547" stop-color="#1e7d2c"/><stop offset=".5586" stop-color="#1f7f2d"/><stop offset=".5625" stop-color="#20812f"/><stop offset=".5664" stop-color="#228331"/><stop offset=".5703" stop-color="#248633"/><stop offset=".5742" stop-color="#258835"/><stop offset=".5781" stop-color="#278b37"/><stop offset=".582" stop-color="#298d39"/><stop offset=".5859" stop-color="#2a903c"/><stop offset=".5898" stop-color="#2c933e"/><stop offset=".5938" stop-color="#2e9540"/><stop offset=".5977" stop-color="#309842"/><stop offset=".6016" stop-color="#329b45"/><stop offset=".6055" stop-color="#349d47"/><stop offset=".6094" stop-color="#36a04a"/><stop offset=".6133" stop-color="#38a34c"/><stop offset=".6172" stop-color="#3aa54f"/><stop offset=".6211" stop-color="#3ca851"/><stop offset=".625" stop-color="#3eab54"/><stop offset=".6289" stop-color="#40ae56"/><stop offset=".6328" stop-color="#42b059"/><stop offset=".6367" stop-color="#44b35c"/><stop offset=".6406" stop-color="#46b65f"/><stop offset=".6445" stop-color="#49b961"/><stop offset=".6484" stop-color="#4bbc64"/><stop offset=".6523" stop-color="#4cbd66"/><stop offset=".6563" stop-color="#4dbf67"/><stop offset=".6602" stop-color="#4cbd65"/><stop offset=".6641" stop-color="#4bbc63"/><stop offset=".668" stop-color="#4aba61"/><stop offset=".6719" stop-color="#49b95f"/><stop offset=".6758" stop-color="#48b75d"/><stop offset=".6797" stop-color="#47b65c"/><stop offset=".6836" stop-color="#46b55a"/><stop offset=".6875" stop-color="#45b358"/><stop offset=".6914" stop-color="#44b256"/><stop offset=".6953" stop-color="#43b054"/><stop offset=".6992" stop-color="#42af52"/><stop offset=".7031" stop-color="#41ae51"/><stop offset=".707" stop-color="#40ac4f"/><stop offset=".7109" stop-color="#3fab4d"/><stop offset=".7148" stop-color="#3ea94b"/><stop offset=".7188" stop-color="#3da84a"/><stop offset=".7227" stop-color="#3ca748"/><stop offset=".7266" stop-color="#3ba546"/><stop offset=".7305" stop-color="#3ba445"/><stop offset=".7344" stop-color="#3aa343"/><stop offset=".7383" stop-color="#39a142"/><stop offset=".7422" stop-color="#38a040"/><stop offset=".7461" stop-color="#379f3e"/><stop offset=".75" stop-color="#369d3d"/><stop offset=".7539" stop-color="#359c3b"/><stop offset=".7578" stop-color="#349b3a"/><stop offset=".7617" stop-color="#339938"/><stop offset=".7656" stop-color="#339837"/><stop offset=".7695" stop-color="#329735"/><stop offset=".7734" stop-color="#319634"/><stop offset=".7773" stop-color="#329635"/><stop offset=".7813" stop-color="#329735"/><stop offset=".7852" stop-color="#359a38"/><stop offset=".7891" stop-color="#379c3a"/><stop offset=".793" stop-color="#399f3c"/><stop offset=".7969" stop-color="#3ba23f"/><stop offset=".8008" stop-color="#3da441"/><stop offset=".8047" stop-color="#3fa744"/><stop offset=".8086" stop-color="#42aa47"/><stop offset=".8125" stop-color="#44ac49"/><stop offset=".8164" stop-color="#46af4c"/><stop offset=".8203" stop-color="#49b24f"/><stop offset=".8242" stop-color="#4bb552"/><stop offset=".8281" stop-color="#4eb755"/><stop offset=".832" stop-color="#50ba58"/><stop offset=".8359" stop-color="#53bd5b"/><stop offset=".8398" stop-color="#55bf5e"/><stop offset=".8438" stop-color="#57c260"/><stop offset=".875" stop-color="#57c260"/><stop offset="1" stop-color="#57c260"/></linearGradient><linearGradient id="f" gradientUnits="userSpaceOnUse" x1="495.6488" y1="300.3234" x2="363.1089" y2="162.5016" gradientTransform="matrix(1 0 0 -1 0 419.5276)"><stop offset="0" stop-color="#1e7d2c"/><stop offset=".4525" stop-color="#1e7d2c"/><stop offset=".5" stop-color="#1e7d2c"/><stop offset=".5475" stop-color="#1e7d2c"/><stop offset=".5625" stop-color="#1e7d2c"/><stop offset=".5938" stop-color="#1e7d2c"/><stop offset=".6094" stop-color="#1e7d2c"/><stop offset=".6172" stop-color="#1e7d2c"/><stop offset=".6211" stop-color="#20802e"/><stop offset=".625" stop-color="#228230"/><stop offset=".6289" stop-color="#248633"/><stop offset=".6328" stop-color="#268936"/><stop offset=".6367" stop-color="#288c38"/><stop offset=".6406" stop-color="#2a903b"/><stop offset=".6445" stop-color="#2c933e"/><stop offset=".6484" stop-color="#2f9641"/><stop offset=".6523" stop-color="#319a44"/><stop offset=".6563" stop-color="#349d47"/><stop offset=".6602" stop-color="#36a14a"/><stop offset=".6641" stop-color="#39a44d"/><stop offset=".668" stop-color="#3ba851"/><stop offset=".6719" stop-color="#3eab54"/><stop offset=".6758" stop-color="#41af57"/><stop offset=".6797" stop-color="#43b25b"/><stop offset=".6836" stop-color="#46b65e"/><stop offset=".6875" stop-color="#49b962"/><stop offset=".6914" stop-color="#4bbc65"/><stop offset=".6953" stop-color="#4ebf67"/><stop offset=".6992" stop-color="#4cbd65"/><stop offset=".7031" stop-color="#4bbb62"/><stop offset=".707" stop-color="#4ab960"/><stop offset=".7109" stop-color="#48b85e"/><stop offset=".7148" stop-color="#47b65b"/><stop offset=".7188" stop-color="#46b459"/><stop offset=".7227" stop-color="#44b256"/><stop offset=".7266" stop-color="#43b054"/><stop offset=".7305" stop-color="#42ae52"/><stop offset=".7344" stop-color="#41ad50"/><stop offset=".7383" stop-color="#3fab4d"/><stop offset=".7422" stop-color="#3ea94b"/><stop offset=".7461" stop-color="#3da749"/><stop offset=".75" stop-color="#3ca647"/><stop offset=".7539" stop-color="#3ba445"/><stop offset=".7578" stop-color="#39a243"/><stop offset=".7617" stop-color="#38a141"/><stop offset=".7656" stop-color="#379f3f"/><stop offset=".7695" stop-color="#369d3d"/><stop offset=".7734" stop-color="#359b3b"/><stop offset=".7773" stop-color="#349a39"/><stop offset=".7813" stop-color="#339837"/><stop offset=".7852" stop-color="#329735"/><stop offset=".7891" stop-color="#309533"/><stop offset=".793" stop-color="#339735"/><stop offset=".7969" stop-color="#359a38"/><stop offset=".8008" stop-color="#379d3b"/><stop offset=".8047" stop-color="#3aa13e"/><stop offset=".8086" stop-color="#3da441"/><stop offset=".8125" stop-color="#40a745"/><stop offset=".8164" stop-color="#43ab48"/><stop offset=".8203" stop-color="#46ae4c"/><stop offset=".8242" stop-color="#49b24f"/><stop offset=".8281" stop-color="#4cb553"/><stop offset=".832" stop-color="#4fb957"/><stop offset=".8359" stop-color="#52bd5b"/><stop offset=".8398" stop-color="#55bf5d"/><stop offset=".8438" stop-color="#57c260"/><stop offset=".875" stop-color="#57c260"/><stop offset="1" stop-color="#57c260"/></linearGradient></defs><g clip-path="url(#a)"><g clip-path="url(#b)" clip-rule="evenodd"><path d="M103.543 393.0273V32.3516h331.3945v360.6757zm0 0" fill="url(#c)"/></g></g><path d="M260.6758 251.4336c0 3.2773-.6133 6.2031-1.8164 8.7773-1.2227 2.5547-2.9063 4.7422-5.0547 6.5391-2.1484 1.7773-4.6836 3.129-7.5938 4.0352-2.9257.9062-6.0547 1.3515-9.4257 1.3515-2.3516 0-4.5352-.2031-6.5352-.5937-2.0195-.4063-3.8164-.9063-5.3867-1.4805-1.5742-.5742-2.8906-1.1836-3.9649-1.7969-1.0547-.6289-1.8164-1.1484-2.2226-1.5898-.4258-.4258-.7227-.9844-.9258-1.6485-.2031-.668-.2969-1.5546-.2969-2.668 0-.7968.039-1.4609.1133-1.9804.0742-.5195.1836-.9453.3125-1.2578.1484-.336.336-.5586.5547-.6875.2226-.129.4648-.1836.7617-.1836.5 0 1.2227.3125 2.1484.9258.9063.6094 2.0899 1.2773 3.5547 2 1.4453.7031 3.1836 1.3867 5.2422 2.0156 2.0352.6328 4.4063.9453 7.0703.9453 2.0391 0 3.8907-.2773 5.5743-.8125 1.6875-.539 3.1328-1.2969 4.3359-2.2969 1.2226-.9804 2.1484-2.203 2.7969-3.6484.6445-1.4453.9804-3.0937.9804-4.9258 0-1.9804-.4453-3.6836-1.3515-5.0937-.9102-1.4063-2.0938-2.6485-3.5742-3.7227-1.5-1.0547-3.1875-2.0351-5.0743-2.9258-1.9062-.8867-3.8515-1.7773-5.832-2.703-1.9844-.9259-3.9258-1.9454-5.7969-3.0743-1.8906-1.1094-3.5742-2.4258-5.0547-3.9453-1.4843-1.5156-2.6875-3.293-3.5937-5.3477-.9258-2.039-1.3906-4.4844-1.3906-7.336 0-2.9452.539-5.5546 1.5937-7.8515 1.0742-2.2773 2.5547-4.2031 4.4453-5.7578 1.9063-1.5547 4.164-2.7422 6.7774-3.5547 2.6289-.8164 5.4453-1.2226 8.4804-1.2226 1.5547 0 3.1094.1289 4.6836.4062 1.5743.2774 3.0586.629 4.4453 1.0938 1.3907.4453 2.629.961 3.7227 1.5156 1.0742.5586 1.7969 1.0195 2.129 1.3555.3515.3515.5741.6093.6874.8125.1094.203.1836.4648.2578.7617.0742.3125.129.6836.168 1.1289.0351.4258.0547.9805.0547 1.6836 0 .6484-.0195 1.2226-.0742 1.7422-.0547.5-.1485.9257-.2579 1.2773-.0937.332-.2617.5899-.4453.7578-.203.168-.4257.2422-.6875.2422-.4062 0-1.0156-.2617-1.8672-.7617-.8554-.5156-1.8906-1.0742-3.1328-1.7188-1.2187-.6328-2.6836-1.207-4.3672-1.7226-1.668-.539-3.5585-.7969-5.668-.7969-1.9452 0-3.6484.2578-5.0937.7774-1.4414.5351-2.6484 1.2226-3.5898 2.0937-.9258.8672-1.6328 1.8867-2.1133 3.0742-.461 1.2031-.7031 2.461-.7031 3.793 0 1.9453.4453 3.6328 1.3515 5.039.9063 1.4063 2.1133 2.6485 3.6133 3.7383 1.5156 1.0938 3.2188 2.0743 5.1446 2.9844 1.9101.9063 3.871 1.8125 5.871 2.7383 1.9805.9258 3.9454 1.9258 5.8516 3.039 1.9258 1.0899 3.629 2.4063 5.1484 3.9063 1.5 1.5 2.7032 3.2578 3.629 5.3164.9257 2.0352 1.3906 4.4414 1.3906 7.2383zm57.6094-6.6484c0 3.9843-.5196 7.6484-1.5743 11-1.039 3.3359-2.6093 6.2226-4.6836 8.6484-2.0742 2.4258-4.6875 4.3164-7.7968 5.668-3.129 1.3515-6.7618 2.0351-10.8711 2.0351-4.0196 0-7.5196-.5937-10.5-1.7969-2.9805-1.1836-5.461-2.9257-7.4453-5.203-1.9805-2.2774-3.461-5.0548-4.4414-8.297-.9844-3.2578-1.4649-6.9414-1.4649-11.0703 0-3.9843.5195-7.6484 1.539-10.9843 1.0352-3.3516 2.59-6.2383 4.6641-8.6641 2.0743-2.4258 4.668-4.2969 7.7774-5.6484 3.1133-1.332 6.7422-2 10.8906-2 4.0195 0 7.5195.5937 10.5 1.7968 2.9805 1.1836 5.461 2.9258 7.4414 5.2032 1.9844 2.2773 3.4844 5.0351 4.4844 8.2968.9805 3.2578 1.4805 6.9258 1.4805 11.0157zm-9.332.5742c0-2.6485-.2423-5.1485-.7423-7.5-.4804-2.3516-1.2968-4.4063-2.4257-6.1836-1.1094-1.7774-2.6485-3.1836-4.5743-4.2031-1.9062-1.0391-4.3125-1.5547-7.1836-1.5547-2.6484 0-4.9257.461-6.8359 1.4062-1.9062.9453-3.461 2.2774-4.7031 4-1.2383 1.7227-2.1485 3.7578-2.7383 6.1094-.6133 2.3516-.9102 4.9258-.9102 7.7031 0 2.6875.2422 5.207.7422 7.5586.4805 2.3516 1.297 4.4063 2.4453 6.164 1.1485 1.7423 2.6836 3.1485 4.5899 4.168 1.9258 1.0352 4.336 1.5547 7.207 1.5547 2.6094 0 4.8672-.4648 6.793-1.4062 1.9258-.9453 3.5-2.2617 4.7422-3.9649 1.2422-1.703 2.1484-3.7382 2.7226-6.0898.5743-2.3555.8711-4.9453.8711-7.7617zm44.203 25.7773l-6.5 17.9805c-.2226.5742-.7812 1.0195-1.668 1.336-.871.3124-2.2226.4609-4.039.4609-.9414 0-1.7031-.0352-2.2773-.129-.5742-.0937-1.0156-.2578-1.332-.4648-.297-.2187-.4649-.5156-.5-.8672-.0352-.371.0546-.7969.2578-1.3164l6.7421-17c-.332-.1484-.6484-.3867-.9257-.7031-.297-.332-.5-.668-.5938-1.0352l-17.4258-46.668c-.2968-.7577-.4257-1.371-.4257-1.7968 0-.4414.1289-.7774.4257-1.0352.297-.2578.7618-.4257 1.4102-.5195.6484-.0937 1.5156-.1289 2.6094-.1289 1.0742 0 1.9257.0195 2.5546.0742.6133.0547 1.0938.168 1.4649.3164.3516.129.6094.3516.7773.6094.168.2773.332.6484.5196 1.1094l13.9414 39.1875h.168l13.4453-39.3906c.2226-.7032.4804-1.1485.7968-1.332.293-.2032.7578-.3516 1.3672-.4454.629-.0937 1.5195-.1289 2.668-.1289 1.0195 0 1.8515.0352 2.5.129.6484.0937 1.1289.2616 1.4258.5194.3164.2578.461.5938.461 1.0352 0 .4258-.1095.9844-.3126 1.6328zm63.1836-1.2969c0 .4258-.1484.7618-.4257.9844-.297.2188-.6875.3672-1.207.4805-.5.1094-1.2384.164-2.2227.164-.9258 0-1.6836-.0546-2.2383-.164-.5547-.1133-.9649-.2617-1.2227-.4805-.2578-.2226-.3906-.539-.3906-.9844v-4.8867c-2.1289 2.2774-4.5 4.0547-7.1289 5.3125-2.6289 1.2422-5.4062 1.8711-8.332 1.8711-2.5742 0-4.9063-.332-6.9805-1-2.0742-.664-3.8516-1.6484-5.3164-2.9062-1.461-1.2578-2.6094-2.832-3.4258-4.668-.8125-1.8516-1.2226-3.9414-1.2226-6.2969 0-2.7578.5586-5.1445 1.6875-7.164 1.1093-2.0391 2.7226-3.7227 4.832-5.0547 2.0937-1.336 4.668-2.3516 7.7031-3.0196 3.039-.668 6.4649-1 10.2578-1h6.7422v-3.8164c0-1.8672-.2031-3.5351-.5937-5-.4063-1.4414-1.0352-2.6484-1.9258-3.6093-.8867-.9649-2.0352-1.6836-3.4414-2.168-1.4102-.5-3.1485-.7383-5.207-.7383-2.2032 0-4.1836.2578-5.9258.7969-1.7578.5351-3.293 1.1094-4.6094 1.7578-1.3164.6484-2.4258 1.2227-3.3164 1.7578-.8672.539-1.5352.7969-1.961.7969-.2968 0-.5546-.0742-.7578-.2227-.2226-.1289-.4101-.3515-.5742-.6484-.168-.2774-.2773-.6484-.3515-1.0899-.0743-.4648-.1133-.9453-.1133-1.5 0-.8906.0547-1.6132.1875-2.1328.1289-.5156.4414-1.0156.9258-1.4804.4804-.461 1.332-1.0196 2.5156-1.664 1.1875-.633 2.5742-1.2227 4.1289-1.7618 1.539-.5195 3.2422-.961 5.0937-1.3125 1.832-.3516 3.7032-.5195 5.5743-.5195 3.5 0 6.4804.3867 8.9453 1.1835 2.461.797 4.4414 1.9844 5.961 3.5196 1.5194 1.5351 2.6132 3.4453 3.2968 5.7226.6836 2.2774 1.039 4.9453 1.039 7.9805zm-8.8906-22.3671h-7.6484c-2.4453 0-4.5742.203-6.3867.6289-1.797.4062-3.297 1.0351-4.5 1.8515-1.1875.8125-2.0586 1.7774-2.6329 2.9258-.5546 1.1484-.832 2.461-.832 3.9453 0 2.5352.7969 4.5547 2.4063 6.0547 1.6132 1.5 3.8515 2.2578 6.7617 2.2578 2.332 0 4.5195-.5898 6.5156-1.7969 2-1.1836 4.1133-3.0156 6.3164-5.4804zm0 0" fill="#4e4a3d"/><g clip-path="url(#d)"><g clip-path="url(#e)" clip-rule="evenodd"><path d="M368.5078 262.2188v-145.254h124.8125v145.254zm0 0" fill="url(#f)"/></g></g><path d="M239.8477 311.9023c0 .2422-.004.4414-.0235.6094-.0156.1602-.043.293-.0781.3906-.0352.1055-.0781.1758-.129.2227-.0507.0469-.1093.0703-.1679.0703h-6.6836c-.2265 0-.414-.082-.5703-.246-.1523-.1602-.2305-.4259-.2305-.793v-14.1055c0-.3672.0782-.6328.2305-.793.1563-.164.3438-.2422.5703-.2422h6.6524c.0586 0 .1132.0196.164.0625.047.043.086.1172.1211.2188.0352.1054.0625.2383.0781.3984.0196.168.0274.3711.0274.625 0 .2344-.0078.4297-.0274.5977-.0156.1601-.043.293-.078.3906-.0352.1016-.0743.1758-.1212.2226-.0507.047-.1054.0704-.164.0704h-4.754v3.9414h4.004c.0625 0 .121.0195.168.0664.0546.0469.0976.1172.1327.2148.0352.0938.0586.2227.0743.3867.0195.1641.0273.3594.0273.5899 0 .2422-.0078.4453-.0273.6015-.0157.1602-.039.2852-.0743.379-.0351.0976-.078.168-.1328.207-.0468.043-.1054.0625-.168.0625h-4.0038v4.5586h4.7851c.0625 0 .1172.0195.168.0664.0508.0469.0937.121.1289.2226.0351.0977.0625.2305.0781.3907.0196.168.0235.3671.0235.6132zm11.0234.8672c0 .082-.0195.1563-.0625.2188-.039.0664-.1094.1172-.2031.1601-.0977.0352-.2344.0704-.4024.0938-.168.0195-.375.0273-.621.0273-.2579 0-.4688-.0078-.6368-.0273-.168-.0235-.3008-.0586-.3984-.0938-.0977-.043-.168-.0937-.2031-.1601a.381.381 0 01-.0665-.2188v-6.3593c0-.543-.0312-.9688-.0976-1.2774-.0625-.3086-.1563-.5742-.2813-.793a1.4148 1.4148 0 00-.4765-.5156c-.1953-.121-.4219-.1797-.6836-.1797-.3281 0-.6602.1446-.9961.4414-.336.2891-.6875.7149-1.0469 1.2696v7.414a.4097.4097 0 01-.0625.2188c-.039.0664-.1094.1172-.211.1601a2.1799 2.1799 0 01-.3945.0938c-.164.0195-.375.0273-.6289.0273s-.4648-.0078-.6289-.0273c-.164-.0235-.2968-.0586-.3945-.0938-.1016-.043-.1719-.0937-.211-.1601-.043-.0625-.0624-.1367-.0624-.2188v-11.1601c0-.082.0156-.1524.0507-.2188.0352-.0625.0977-.1133.1836-.1562a1.3536 1.3536 0 01.3438-.0938c.1406-.0234.3203-.0312.5312-.0312.2227 0 .4024.0078.547.0312.1444.0196.2538.0547.3358.0938.0782.043.1329.0937.168.1562a.4541.4541 0 01.0547.2188v1.289c.504-.664 1.0195-1.1601 1.5469-1.4921.5234-.336 1.0742-.5 1.6406-.5.629 0 1.1524.121 1.582.375.4297.246.7735.5898 1.043 1.0195.2617.4258.4531.9297.5664 1.5078.1172.5742.1758 1.2656.1758 2.0703zm11.2539 0c0 .0899-.0195.168-.0547.2305-.0312.0664-.0898.1172-.1719.1602-.0859.039-.1953.0664-.3359.0859-.1406.0156-.3125.0234-.5195.0234-.2188 0-.3985-.0078-.5352-.0234-.1367-.0195-.246-.0469-.336-.086-.082-.043-.1445-.0976-.1796-.1601-.039-.0625-.0625-.1406-.0625-.2344v-1.2383c-.4688.6172-.9688 1.0938-1.4844 1.4375-.5195.3399-1.0937.5118-1.7265.5118-.6993 0-1.293-.168-1.7735-.4961-.4844-.3282-.8789-.7735-1.1836-1.332-.3086-.5548-.5273-1.207-.664-1.9532-.1368-.746-.207-1.5312-.207-2.3555 0-.9882.0859-1.8828.2616-2.6757.1758-.7891.4297-1.4649.7657-2.0235.336-.5586.7578-.9844 1.2578-1.289.5-.297 1.0742-.4454 1.7304-.4454.5118 0 .9805.129 1.3985.379.4219.2578.836.6289 1.246 1.1171v-6.0273a.474.474 0 01.0548-.2266c.039-.0664.1054-.125.211-.168.0976-.0468.2304-.078.3905-.1054.168-.0273.379-.039.629-.039.2538 0 .4648.0117.6288.039.1641.0273.297.0586.3907.1055.0937.043.164.1015.203.168a.4062.4062 0 01.0665.2265zm-2.5742-7.453c-.3672-.5665-.7266-.9962-1.0664-1.3009-.3399-.2969-.6953-.4492-1.0664-.4492-.332 0-.625.1055-.8672.3086-.2461.2031-.4414.4727-.586.8164-.1484.3438-.2617.7227-.332 1.1406-.0742.4258-.1094.8555-.1094 1.293 0 .4727.0313.9219.0938 1.3633.0625.4414.164.836.3047 1.1797.1406.3476.3242.625.5625.832.2304.211.5273.3125.8828.3125.1758 0 .3515-.0313.5234-.0938.168-.0625.336-.1601.5117-.3085.1758-.1407.3555-.3243.5391-.5547.1875-.2305.3906-.5078.6094-.8399zm13.8867 7.453c0 .082-.0156.1563-.0508.2188-.0351.0664-.0937.1172-.1797.1601-.086.0352-.1992.0704-.3437.0938-.1406.0195-.3164.0273-.5274.0273-.2265 0-.4101-.0078-.5507-.0273-.1407-.0235-.254-.0586-.332-.0938-.086-.043-.1407-.0937-.1759-.1601-.0351-.0625-.0546-.1367-.0546-.2188v-1.2851c-.504.6601-1.0196 1.1601-1.547 1.4922-.5273.332-1.0741.5-1.6366.5-.6329 0-1.1641-.125-1.5938-.375-.4297-.25-.7773-.5938-1.039-1.0274-.2657-.4336-.4532-.9336-.5704-1.5039-.1132-.5742-.168-1.2851-.168-2.1328v-6.8281c0-.082.0157-.1524.0548-.2188.039-.0625.1093-.1133.207-.1562.0976-.039.2383-.0742.4062-.0938.168-.0234.375-.0312.625-.0312.254 0 .4649.0078.629.0312.164.0196.2968.0547.3945.0938.1054.043.1758.0937.211.1562.0429.0664.0663.1367.0663.2188v6.3008c0 .5859.0313 1.0312.0899 1.3359.0625.3125.1601.5781.2851.793.125.2226.289.3945.4844.5195.1953.1172.4219.1758.6836.1758.332 0 .664-.1446.996-.4336.3321-.289.6876-.7149 1.0665-1.2695v-7.422c0-.082.0156-.1523.0547-.2187.039-.0625.1054-.1133.207-.1562.0977-.039.2305-.0742.3945-.0938.1641-.0234.375-.0312.629-.0312.2538 0 .4609.0078.6288.0312.1602.0196.293.0547.3907.0938.0937.043.164.0937.2031.1562.043.0664.0625.1367.0625.2188zm-5.0586-14.9101c0 .586-.0937.9883-.2734 1.2187-.1797.2266-.5235.3438-1.0352.3438-.5117 0-.8594-.1133-1.039-.336-.1797-.2148-.2696-.6093-.2696-1.164 0-.6016.0938-1.0117.2774-1.2344.1875-.2266.5273-.3398 1.0312-.3398.5195 0 .8711.1132 1.043.332.1758.2187.2656.6133.2656 1.1797zm4.0274 0c0 .586-.0938.9883-.2774 1.2187-.1758.2266-.5234.3438-1.043.3438-.5039 0-.8476-.1133-1.0273-.336-.1797-.2148-.2695-.6093-.2695-1.164 0-.6016.0937-1.0117.2734-1.2344.1797-.2266.5273-.3398 1.0352-.3398.5117 0 .8593.1132 1.039.332.1797.2187.2695.6133.2695 1.1797zm10.1093 11.7539c0 .6328-.0976 1.1914-.293 1.6758-.1953.4843-.4726.8867-.828 1.2148-.3594.3242-.7813.5664-1.2696.7266-.4883.164-1.0156.246-1.586.246-.3437 0-.6757-.0312-.9882-.0937-.3125-.0664-.5899-.1445-.8399-.246-.246-.0938-.453-.1915-.6171-.293-.1641-.1016-.2852-.1954-.3594-.2852-.0781-.0899-.1367-.2266-.1758-.414-.039-.1837-.0625-.461-.0625-.8282 0-.2383.0078-.4297.0234-.5742.0118-.1485.0352-.2656.0586-.3516.0274-.086.0625-.1445.1055-.1758.039-.0273.0898-.043.1523-.043.0743 0 .1875.0509.336.1602a5.364 5.364 0 00.5508.3438c.2187.1289.4765.246.7656.3555.293.1093.625.164.996.164.2305 0 .4415-.0273.6212-.086.1836-.0585.3398-.1445.4726-.2538.1367-.1055.2383-.2422.3086-.414.0664-.1642.1016-.3595.1016-.5743 0-.254-.0625-.4649-.1914-.6445-.129-.1797-.2969-.3399-.504-.4688-.2109-.1328-.4491-.2578-.7148-.3789a12.6181 12.6181 0 01-.8164-.3867 7.1852 7.1852 0 01-.8125-.4844 3.243 3.243 0 01-.7148-.6758c-.207-.2656-.375-.5898-.5078-.961-.125-.375-.1875-.828-.1875-1.3515 0-.5351.0859-1.0195.2578-1.4687.1758-.4414.4219-.8281.7422-1.1446.328-.3125.7226-.5625 1.1836-.7382.4687-.172.9882-.2579 1.5703-.2579.289 0 .5664.0235.8398.0704.2735.0507.5235.1171.7383.1875.2226.078.4101.1562.5586.246.1523.086.2617.1602.3281.2188.0664.0664.1133.125.1406.1914.0235.0625.047.1328.0586.2227a2.841 2.841 0 01.039.3242c.0118.1289.0157.293.0157.4844 0 .2265-.0039.4101-.0156.5507-.0078.1407-.0274.254-.0508.336-.0234.086-.0586.1406-.0976.1719a.2718.2718 0 01-.1446.043c-.0625 0-.164-.043-.293-.1329-.1288-.086-.2968-.1797-.4921-.2773-.1953-.0977-.4258-.1914-.6797-.2774-.2617-.0898-.5586-.1328-.8867-.1328-.2344 0-.4414.0313-.6133.086-.1719.0585-.3125.1445-.4219.25-.1094.1093-.1953.2343-.246.3828-.0587.1445-.086.3007-.086.4648 0 .2578.0664.4766.1953.6524.1328.1757.3047.328.5195.4609.211.1328.457.2578.7266.375.2695.1133.5469.2422.8242.3789.2773.1367.5547.2969.8281.4805.2696.1836.5156.4101.7266.6757.2148.2696.3867.586.5156.957.129.3712.1953.8087.1953 1.3165zm7.1406 2.0625c0 .3672-.0156.6484-.0546.8437-.0391.1953-.0899.332-.1524.4102-.0586.082-.1523.1523-.2695.2148a2.2516 2.2516 0 01-.4258.1602c-.1562.0469-.332.082-.5234.1055a3.9752 3.9752 0 01-.5743.039c-.5117 0-.957-.082-1.3359-.2383-.3789-.1562-.6914-.4023-.9375-.7304-.246-.3282-.4297-.7422-.5469-1.2461-.1171-.5-.1757-1.0899-.1757-1.7735v-5.7148h-1.1133c-.129 0-.2305-.0977-.3008-.293-.0664-.1953-.1016-.5234-.1016-.9844 0-.246.004-.4492.0235-.6171.0156-.1641.0468-.297.078-.3946.0353-.0937.0782-.164.133-.207.0468-.043.1132-.0625.1796-.0625h1.1016v-2.496c0-.0821.0195-.1603.0586-.2267.0351-.0625.1054-.121.207-.168.0976-.0468.2344-.078.4023-.1015.168-.0195.375-.0273.625-.0273.254 0 .4649.0078.6328.0273.168.0235.3008.0547.4024.1016.0937.0469.164.1054.2031.168.043.0663.0625.1445.0625.2265v2.4961h1.9922c.0703 0 .1289.0195.1797.0625.0508.043.0937.1133.1289.207.0351.0977.0586.2305.0781.3946.0156.168.0235.371.0235.6171 0 .461-.0352.7891-.1016.9844-.0703.1953-.168.293-.2969.293h-2.0039v5.2422c0 .6094.0781 1.0664.2344 1.3672.1601.3047.4414.457.8437.457.1368 0 .2618-.0117.3711-.043.1055-.0273.207-.0625.289-.1015.09-.0352.1602-.0664.2188-.0977a.3264.3264 0 01.1563-.043c.043 0 .082.0118.121.043.0352.0313.0665.086.09.1758.0156.082.035.2031.0546.3516.0156.1562.0235.3437.0235.578zm7.7735-9.0235c0 .297-.0078.543-.0195.7383-.0157.1914-.0352.3399-.0625.4453-.0274.1094-.0664.1836-.1094.2266-.043.043-.1016.0586-.1719.0586-.0508 0-.1133-.0117-.1836-.043a14.5635 14.5635 0 00-.2344-.0937 3.942 3.942 0 00-.2812-.0938c-.1055-.0273-.2149-.039-.3399-.039a.9332.9332 0 00-.4336.1054c-.1406.0703-.293.1797-.4492.332-.1523.1485-.3164.3516-.4843.5977-.168.25-.3477.5586-.5391.9258v6.957a.381.381 0 01-.0664.2188c-.0352.0664-.1055.1172-.207.1601a2.1799 2.1799 0 01-.3946.0938c-.168.0195-.375.0273-.6289.0273s-.4648-.0078-.6289-.0273c-.164-.0235-.2969-.0586-.3945-.0938-.1016-.043-.1719-.0937-.211-.1601-.043-.0625-.0625-.1367-.0625-.2188v-11.1601c0-.082.0157-.1524.0508-.2188.0313-.0625.0977-.1133.1836-.1562.0899-.039.2031-.0742.3438-.0938.1406-.0234.3203-.0312.5312-.0312.2227 0 .4024.0078.5469.0312.1406.0196.2539.0547.336.0938.078.043.1327.0937.1679.1562a.4541.4541 0 01.0547.2188V303c.2383-.418.4648-.7578.6758-1.0273.2148-.2696.418-.4883.6093-.6446.1914-.1562.3868-.2695.5782-.3281.1914-.0664.3828-.0938.578-.0938.086 0 .1837.004.2892.0157.1015.0117.207.0351.3164.0664.1093.0273.207.0625.289.0976.086.0352.1446.0743.1836.1172a.5526.5526 0 01.082.1367c.0157.0508.0313.1211.043.211.0156.086.0274.2148.0313.3906.0078.1758.0117.4102.0117.711zm4.1836 10.1172c0 .082-.0195.1563-.0625.2188-.039.0664-.1094.1172-.211.1601-.0976.0352-.2304.0704-.3945.0938-.164.0195-.375.0273-.6289.0273-.25 0-.461-.0078-.6289-.0273-.1602-.0235-.293-.0586-.3906-.0938-.1016-.043-.1719-.0937-.211-.1601-.043-.0625-.0625-.1367-.0625-.2188v-11.1328c0-.082.0196-.1562.0625-.2187.0391-.0664.1094-.1211.211-.164.0976-.047.2304-.0782.3906-.1056.168-.0273.379-.039.629-.039.2538 0 .4647.0117.6288.039.164.0274.2969.0586.3945.1055.1016.043.172.0977.211.164.043.0626.0625.1368.0625.2188zm.211-14.9492c0 .6367-.1055 1.0703-.3165 1.3164-.2148.2422-.6094.3594-1.1914.3594s-.9766-.1133-1.1797-.3477c-.2031-.2343-.3047-.6562-.3047-1.2656 0-.6328.1055-1.0742.3164-1.3203.207-.2422.6055-.3672 1.1914-.3672.5743 0 .9688.1172 1.1758.3594.207.2344.3086.6562.3086 1.2656zm7.6874 15.375l-1.1133 3.9414c-.0664.207-.2304.3594-.5039.4531-.2734.0899-.6757.1368-1.203.1368-.2735 0-.4962-.0157-.6563-.043-.1641-.0313-.2891-.0781-.3711-.1445-.082-.0704-.129-.1524-.1368-.25-.0039-.1016.0157-.2227.0664-.3633l1.2227-3.7305c-.0898-.0508-.168-.1289-.2383-.2305-.0742-.1093-.1289-.2187-.164-.3359l-3.1524-10.2539c-.086-.293-.1328-.5195-.1328-.6719 0-.1523.043-.2734.125-.3633.0781-.0859.2188-.1445.414-.1796.1954-.0313.4532-.0508.7774-.0508.289 0 .5235.0039.6953.0195.1719.0117.3047.0469.3985.0938.0937.0507.168.125.2148.2343.0508.1016.0938.25.1445.4414l2.1602 7.4688h.0312l1.961-7.6172c.043-.2188.0976-.3633.164-.4336.0625-.0703.172-.121.3204-.1562.1523-.0313.418-.0508.7968-.0508.297 0 .543.0195.7383.0508.1953.0351.3399.0937.4336.1875.0899.0898.1367.2148.1367.3671 0 .1563-.0234.3399-.082.547zm12.9102-6.3242c0 .3828-.0703.664-.211.8476-.1367.1836-.332.2774-.582.2774h-5.5937c0 .4726.0468.9023.1406 1.289.0937.3829.2383.711.4414.9805.2031.2696.461.4766.7812.6172.3204.1406.6993.211 1.1446.211.453 0 .8515-.0391 1.1953-.1172.3398-.082.6406-.168.8906-.2657.25-.0976.457-.1836.6211-.2656.164-.082.3008-.1172.4023-.1172.0625 0 .1133.0117.1524.043.043.0273.0781.0781.1055.1562.0234.0743.0468.1797.0546.3164.0118.1368.0157.3125.0157.5157 0 .1836-.004.3398-.0118.4687a2.3417 2.3417 0 01-.0312.3281c-.0117.0938-.0313.172-.0586.2305a.7365.7365 0 01-.1094.1836c-.0468.0547-.164.1367-.3632.2383-.2032.1055-.4532.2031-.7657.3008-.3086.0976-.6601.1836-1.0547.2539-.3984.0742-.8242.1133-1.2773.1133-.8203 0-1.5313-.125-2.1445-.375-.6133-.25-1.125-.629-1.543-1.1368-.4102-.5078-.7149-1.1523-.918-1.9257-.1992-.7735-.3047-1.6836-.3047-2.7266 0-.9883.1055-1.879.3204-2.6797.2109-.793.5195-1.4648.9296-2.0195.4024-.5547.8946-.9766 1.4766-1.2695.582-.293 1.2344-.4375 1.961-.4375.7695 0 1.4296.1367 1.9726.414.5469.2735.996.6563 1.3476 1.1445.3477.4844.6055 1.0664.7735 1.7305.164.664.2422 1.3906.2422 2.1758zm-2.5078-.8984c.0234-.8829-.125-1.5782-.4375-2.082-.3125-.5079-.797-.7579-1.4493-.7579-.328 0-.6171.0781-.8593.2266-.2461.1484-.4493.3476-.6133.6054-.1602.254-.2852.5547-.3672.8985-.0898.3515-.1367.7187-.1523 1.1094zm7.2421 6.7968c0 .082-.0195.1563-.0625.2188-.039.0664-.1093.1172-.2109.1601-.0976.0352-.2305.0704-.3945.0938-.164.0195-.375.0273-.629.0273-.2538 0-.4648-.0078-.6288-.0273a2.1799 2.1799 0 01-.3946-.0938c-.1015-.043-.1718-.0937-.2109-.1601a.4097.4097 0 01-.0625-.2188v-16.4453c0-.086.0234-.1601.0625-.2265.039-.0664.1094-.125.211-.168.1015-.0469.2343-.082.3945-.1055.164-.0273.375-.039.6289-.039s.4648.0117.6289.039c.164.0235.2969.0586.3945.1055.1016.043.1719.1015.211.168.043.0664.0625.1406.0625.2265zm16.3555-14.4062c0 .2422-.0078.4453-.0273.621-.0156.172-.039.3087-.0742.4102-.0352.1055-.0782.1836-.1329.2305-.0468.0508-.1093.0781-.168.0781h-3.332v13.043c0 .082-.0195.1562-.0664.2266-.0468.0625-.1171.1171-.2226.1601-.1016.039-.2422.0742-.418.0977-.1758.0273-.3906.039-.6523.039-.2578 0-.4766-.0117-.6524-.039-.1758-.0235-.3164-.0586-.418-.0977-.1015-.043-.1757-.0976-.2226-.1601-.0469-.0704-.0664-.1446-.0664-.2266v-13.043h-3.332c-.0664 0-.125-.0273-.1758-.0781-.043-.0469-.086-.125-.1211-.2305-.0313-.1015-.0586-.2382-.0781-.4101-.0196-.1758-.0235-.379-.0235-.6211 0-.25.004-.461.0235-.6367.0195-.1758.0468-.3164.078-.418.0352-.1055.0782-.1797.1212-.2266.0508-.0468.1094-.0664.1758-.0664h9.3828a.2424.2424 0 01.168.0664c.0546.047.0976.1211.1328.2266.0351.1016.0586.2422.0742.418.0195.1757.0273.3867.0273.6367zm9.0586 14.4062c0 .082-.0156.1563-.0508.2188-.0312.0664-.0898.1172-.1797.1601a1.5266 1.5266 0 01-.3398.0938c-.1406.0195-.3164.0273-.5273.0273-.2305 0-.4102-.0078-.5508-.0273-.1406-.0235-.254-.0586-.336-.0938-.082-.043-.1406-.0937-.1757-.1601-.0352-.0625-.0508-.1367-.0508-.2188v-1.2851c-.5078.6601-1.0235 1.1601-1.5508 1.4922-.5274.332-1.0703.5-1.6328.5-.6328 0-1.168-.125-1.5977-.375-.4258-.25-.7734-.5938-1.039-1.0274-.2618-.4336-.4532-.9336-.5704-1.5039-.1093-.5742-.168-1.2851-.168-2.1328v-6.8281a.417.417 0 01.0587-.2188c.039-.0625.1054-.1133.207-.1562.0977-.039.2344-.0742.4024-.0938.168-.0234.375-.0312.625-.0312.2539 0 .4648.0078.6289.0312.168.0196.3007.0547.3984.0938.1016.043.1719.0937.211.1562.0429.0664.0624.1367.0624.2188v6.3008c0 .5859.0313 1.0312.0899 1.3359.0664.3125.1601.5781.2851.793.129.2226.289.3945.4844.5195.1953.1172.4219.1758.6875.1758.3281 0 .6602-.1446.9922-.4336.332-.289.6914-.7149 1.0664-1.2695v-7.422a.454.454 0 01.0547-.2187c.039-.0625.1055-.1133.207-.1562.1016-.039.2344-.0742.3945-.0938.168-.0234.375-.0312.629-.0312.2539 0 .4648.0078.6289.0312.164.0196.2968.0547.3906.0938.0937.043.164.0937.2031.1562.043.0664.0625.1367.0625.2188zm-5.0586-14.9101c0 .586-.0898.9883-.2734 1.2187-.1797.2266-.5235.3438-1.0313.3438-.5156 0-.8632-.1133-1.043-.336-.1796-.2148-.2656-.6093-.2656-1.164 0-.6016.0899-1.0117.2774-1.2344.1875-.2266.5273-.3398 1.0312-.3398.5196 0 .8711.1132 1.043.332.1758.2187.2617.6133.2617 1.1797zm4.0274 0c0 .586-.0899.9883-.2735 1.2187-.1797.2266-.5273.3438-1.043.3438-.5078 0-.8515-.1133-1.0312-.336-.1797-.2148-.2656-.6093-.2656-1.164 0-.6016.0898-1.0117.2734-1.2344.1797-.2266.5274-.3398 1.0313-.3398.5156 0 .8632.1132 1.043.332.1796.2187.2656.6133.2656 1.1797M363.7188 312.7852c0 .082-.0196.1523-.0586.2148-.0352.0664-.1055.1133-.207.1523-.0977.0391-.2344.0664-.4063.0899-.1719.0195-.3946.0273-.6719.0273-.2813 0-.5078-.0078-.6836-.0234-.1758-.0195-.3203-.043-.4336-.082-.1133-.0391-.1992-.0899-.2617-.1563-.0664-.0664-.1172-.1562-.168-.2617l-3.0547-5.879v5.9024a.4097.4097 0 01-.0625.2188c-.039.0664-.1093.1172-.2109.1601a2.1799 2.1799 0 01-.3945.0938c-.164.0195-.375.0273-.629.0273-.2538 0-.4648-.0078-.6288-.0273-.1641-.0235-.297-.0586-.3946-.0938-.1015-.043-.1719-.0937-.211-.1601-.0429-.0625-.0624-.1367-.0624-.2188v-16.4453c0-.086.0195-.1601.0625-.2265.039-.0664.1094-.125.211-.168.0976-.0469.2304-.082.3945-.1055.164-.0273.375-.039.6289-.039s.4648.0117.6289.039c.1601.0235.293.0586.3945.1055.1016.043.1719.1015.211.168a.4374.4374 0 01.0624.2265v9.789l2.7188-4.4413a1.2112 1.2112 0 01.1875-.2617c.0664-.0743.1562-.1329.2695-.1758a2.004 2.004 0 01.4219-.0938c.168-.0234.3828-.0312.6445-.0312.25 0 .4649.0078.6406.0312.172.0196.3125.0547.422.0938.1054.043.1796.0937.2187.1562.043.0664.0625.1406.0625.2305 0 .125-.0235.2617-.0781.4023-.0508.1407-.129.2891-.2305.4532l-2.6836 3.703 3.1133 5.84c.082.1679.1445.3124.1797.4335.039.1172.0586.2305.0586.332zm9.4804-5.9141c0 .3828-.0703.664-.211.8476-.1405.1836-.3359.2774-.5859.2774h-5.5937c0 .4726.0469.9023.1406 1.289.0938.3829.2422.711.4414.9805.2031.2696.4649.4766.7813.6172.3203.1406.6992.211 1.1484.211.4531 0 .8477-.0391 1.1953-.1172.3399-.082.6367-.168.8867-.2657.25-.0976.457-.1836.6211-.2656.168-.082.3008-.1172.4024-.1172.0625 0 .1172.0117.1523.043.043.0273.0781.0781.1055.1562.0273.0743.0469.1797.0586.3164.0078.1368.0117.3125.0117.5157 0 .1836-.0039.3398-.0078.4687a4.735 4.735 0 01-.0313.3281c-.0156.0938-.0351.172-.0625.2305a.7365.7365 0 01-.1093.1836c-.043.0547-.164.1367-.3633.2383-.1992.1055-.4531.2031-.7617.3008-.3125.0976-.6602.1836-1.0586.2539-.3985.0742-.8242.1133-1.2774.1133-.8164 0-1.5312-.125-2.1445-.375s-1.125-.629-1.539-1.1368c-.4102-.5078-.7188-1.1523-.922-1.9257-.1992-.7735-.3007-1.6836-.3007-2.7266 0-.9883.1055-1.879.3203-2.6797.211-.793.5195-1.4648.9258-2.0195.4062-.5547.8945-.9766 1.4765-1.2695.582-.293 1.2344-.4375 1.9649-.4375.7695 0 1.4258.1367 1.9687.414.5508.2735.9961.6563 1.3477 1.1445.3476.4844.6055 1.0664.7734 1.7305.164.664.2461 1.3906.2461 2.1758zm-2.5117-.8984c.0234-.8829-.125-1.5782-.4375-2.082-.3125-.5079-.793-.7579-1.4492-.7579-.3281 0-.6172.0781-.8594.2266-.246.1484-.4492.3476-.6094.6054-.164.254-.2851.5547-.371.8985-.086.3515-.1368.7187-.1524 1.1094zm13.4727-4.7852c.2851 0 .4882.0781.6015.2266.1133.1484.168.3671.168.6484v10.707c0 .082-.0195.1563-.0625.2188-.039.0664-.1094.1172-.2031.1601-.0977.0352-.2305.0704-.4024.0938-.168.0195-.375.0273-.621.0273-.2579 0-.465-.0078-.6368-.0273-.168-.0235-.3008-.0586-.3984-.0938-.0977-.043-.164-.0937-.2032-.1601a.381.381 0 01-.0664-.2188v-9.0234h-4.1093v5.2422c0 .6094.078 1.0664.2343 1.3672.1602.3047.4414.457.8438.457.1367 0 .2617-.0117.371-.043a1.5545 1.5545 0 00.2891-.1015c.0899-.0352.1602-.0664.2188-.0977a.3264.3264 0 01.1562-.043c.043 0 .082.0118.1211.043.0352.0313.0664.086.0899.1758.0156.082.0351.2031.0547.3516.0156.1562.0234.3437.0234.578 0 .3673-.0156.6446-.0508.8321-.0312.1875-.082.3242-.1445.4102-.0586.0898-.1563.164-.2774.2265-.125.0625-.2695.1172-.4296.1602-.1563.0469-.332.082-.5235.1055a3.9752 3.9752 0 01-.5742.039c-.5117 0-.957-.082-1.336-.2383-.3788-.1562-.6913-.4023-.9374-.7304-.2461-.3282-.4297-.7422-.547-1.2461-.117-.5-.1757-1.0899-.1757-1.7735v-5.7148h-1.1133c-.1289 0-.2304-.0977-.3007-.293-.0665-.1953-.1016-.5234-.1016-.9844 0-.246.0039-.4492.0234-.6171.0156-.1641.0469-.297.0781-.3946.0352-.0937.0782-.164.1329-.207.0468-.043.1132-.0625.1796-.0625h1.1016v-2.496c0-.0821.0195-.1603.0586-.2267.0352-.0625.1055-.121.207-.168.0977-.0468.2344-.078.4024-.1015.168-.0195.375-.0273.625-.0273.2539 0 .4648.0078.6328.0273.168.0235.3008.0547.4023.1016.0938.0469.1641.1054.2032.168.043.0663.0625.1445.0625.2265v2.4961zm.9609-3.3398c0 .6328-.1055 1.0703-.3203 1.3125-.2149.2421-.6094.3632-1.1875.3632-.582 0-.9805-.1171-1.1797-.3515-.2031-.2344-.3047-.6563-.3047-1.2617 0-.6368.1016-1.0743.3125-1.3243.211-.2421.6055-.3671 1.1914-.3671.5781 0 .9727.121 1.1797.3593.207.2344.3086.6563.3086 1.2696zm17.0234 14.9218c0 .082-.0195.1563-.0625.2188-.039.0664-.1093.1172-.203.1601-.0978.0352-.2306.0704-.3946.0938-.164.0195-.375.0273-.629.0273-.2616 0-.4765-.0078-.6445-.0273-.164-.0235-.2968-.0586-.3945-.0938-.0976-.043-.168-.0937-.207-.1601-.039-.0625-.0586-.1367-.0586-.2188v-6.6132c0-.375-.0274-.7149-.086-1.0235-.0586-.3086-.1484-.5742-.2695-.793-.1172-.2226-.2695-.3906-.4492-.5156-.1836-.121-.3945-.1797-.6484-.1797-.3086 0-.6211.1446-.9336.4414-.3164.2891-.6602.7149-1.0274 1.2696v7.414a.4097.4097 0 01-.0625.2188c-.039.0664-.1094.1172-.211.1601-.0976.0352-.2343.0704-.3984.0938-.164.0195-.371.0273-.6171.0273-.2579 0-.4688-.0078-.6329-.0273-.164-.0235-.3007-.0586-.3984-.0938-.1016-.043-.1719-.0937-.211-.1601-.0429-.0625-.0624-.1367-.0624-.2188v-6.6132c0-.375-.0274-.7149-.086-1.0235-.0586-.3086-.1445-.5742-.2656-.793-.1172-.2226-.2656-.3906-.4492-.5156-.1875-.121-.4024-.1797-.6485-.1797-.3164 0-.6289.1446-.9453.4414-.3164.2891-.6601.7149-1.0195 1.2696v7.414a.4097.4097 0 01-.0625.2188c-.039.0664-.1094.1172-.211.1601a2.1799 2.1799 0 01-.3945.0938c-.168.0195-.375.0273-.6289.0273s-.4648-.0078-.6289-.0273c-.164-.0235-.2969-.0586-.3945-.0938-.1016-.043-.1719-.0937-.211-.1601-.043-.0625-.0624-.1367-.0624-.2188v-11.1601c0-.082.0156-.1524.0507-.2188.0313-.0625.0977-.1133.1836-.1562.0899-.039.2032-.0742.3438-.0938.1406-.0234.3203-.0312.5312-.0312.2227 0 .4024.0078.547.0312.1405.0196.2538.0547.3358.0938.0782.043.1329.0937.168.1562a.4541.4541 0 01.0547.2188v1.289c.504-.664 1.0117-1.1601 1.5156-1.4921.5078-.336 1.0352-.5 1.582-.5.379 0 .7188.0468 1.0235.1445.3008.0937.5664.2305.8086.4101.2344.1797.4375.3907.6094.6407.1718.25.3164.5273.4336.8359.2734-.3594.543-.668.8086-.9219.2617-.2578.5273-.4687.7812-.6328.2578-.1601.5156-.2812.7734-.3594a2.6806 2.6806 0 01.7891-.1171c.6055 0 1.121.121 1.543.375.418.246.7539.5898 1.0117 1.0195.2578.4258.4414.9297.5508 1.5078.1093.5742.164 1.1797.164 1.8242zM260.422 339.5898c0 .8516-.1328 1.5938-.3906 2.2383-.2657.6406-.6172 1.1719-1.0625 1.6055-.4493.4258-.9688.75-1.5665.9687-.5976.2149-1.2382.3243-1.918.3243-.4609 0-.8866-.047-1.2812-.1407-.3945-.0937-.7422-.207-1.0469-.3398-.3007-.125-.5546-.2617-.7578-.4063-.203-.1484-.3476-.2734-.4375-.3828-.0898-.1093-.1523-.2656-.1914-.4726-.039-.2031-.0547-.4961-.0547-.879 0-.2616.004-.4726.0196-.6484.0156-.1757.0351-.3164.0664-.4257.0312-.1094.0742-.1836.125-.2305a.254.254 0 01.1797-.0703c.0976 0 .2343.0703.4101.211.1758.1366.3985.289.6719.457.2773.164.6055.3202.9883.457.3789.1406.8242.207 1.3242.207.332 0 .629-.0469.8867-.1406.2656-.0977.4844-.2305.668-.4063.1836-.1719.3203-.3867.418-.6445.0937-.254.1445-.539.1445-.8555 0-.3672-.082-.6836-.2461-.9453-.164-.2617-.379-.4922-.6484-.6992-.2618-.2031-.5625-.3945-.9024-.5742-.332-.1797-.6797-.3672-1.039-.5664a8.986 8.986 0 01-1.0391-.6836 4.3352 4.3352 0 01-.9024-.9102c-.2695-.3555-.4843-.7734-.6484-1.2578-.164-.4844-.246-1.0625-.246-1.7383 0-.7695.121-1.4531.3554-2.043.2344-.5859.5547-1.0703.957-1.457.4024-.3906.875-.6797 1.418-.871.543-.1915 1.125-.2891 1.7344-.2891.3125 0 .6289.0312.9453.0898.3164.0586.6132.1367.8867.2383.2734.1016.5156.211.7305.336.2109.1288.3515.2304.4218.3163.0664.0782.1133.1524.1368.207.0234.0587.0468.1368.0625.2344.0195.0938.0312.2149.0351.3633.0078.1446.0117.3242.0117.543 0 .2383-.0039.4414-.0156.6094-.0078.168-.0273.3047-.0508.414-.0234.1055-.0586.1875-.1015.2344-.047.0508-.1055.0781-.1836.0781-.0743 0-.1914-.0625-.3594-.1757-.164-.1172-.3672-.2422-.6055-.3829-.2422-.1367-.5195-.2617-.836-.371-.3163-.1172-.66-.172-1.0429-.172-.293 0-.5508.043-.7734.1329-.2149.086-.3985.207-.5469.3633-.1484.1523-.2578.3359-.3281.5546-.0742.2149-.1094.4454-.1094.6836 0 .3594.0781.672.2422.9336.1601.2618.3789.4961.6484.7032.2696.1992.582.3906.9258.5703.3399.1797.6914.371 1.0508.5664.3555.2031.707.4297 1.0508.6836.3437.2578.6484.5586.918.914.2695.3555.4843.7696.6523 1.25.164.4766.246 1.043.246 1.6914zm9.7304 4.4688c0 .1172-.0351.207-.1015.2734-.0703.0703-.1797.1172-.3242.1446-.1485.0312-.3672.043-.6602.043-.3086 0-.5312-.0118-.6719-.043-.1406-.0274-.2422-.0743-.3007-.1446-.0586-.0664-.086-.1562-.086-.2734v-.8867c-.3789.4922-.8086.871-1.293 1.1445-.4804.2734-1.0195.4102-1.6093.4102-.4844 0-.9336-.0782-1.3438-.2305a3.0061 3.0061 0 01-1.0586-.6875c-.2969-.3086-.5273-.6836-.6953-1.1328-.164-.4492-.246-.9766-.246-1.5742 0-.6524.1054-1.2149.3124-1.6914.211-.4844.5235-.875.9414-1.1914.414-.3125.9258-.543 1.543-.6915.6172-.1484 1.332-.2265 2.1484-.2265h.8946v-.6719c0-.3516-.0274-.6601-.086-.9219-.0547-.2617-.1562-.4843-.289-.6601-.1329-.1719-.3086-.3008-.5352-.3867-.2187-.082-.496-.125-.8242-.125-.4336 0-.8203.0625-1.1563.1757-.3398.1172-.6406.2461-.8984.3907-.2617.1406-.4805.2695-.6563.3867-.1757.1133-.3125.1758-.4218.1758-.0781 0-.1446-.0313-.2031-.086-.0586-.0586-.1094-.1445-.1446-.2539-.0351-.1055-.0664-.2422-.086-.3984a4.3364 4.3364 0 01-.0312-.5235c0-.2578.0157-.4648.0508-.6132.0313-.1485.1016-.2813.1953-.4063.0977-.1172.2617-.25.504-.3945.2421-.1445.5195-.2813.8437-.4063.3242-.1289.6758-.2304 1.0547-.3086a5.8945 5.8945 0 011.1797-.1171c.7226 0 1.3359.0859 1.8476.2539.5117.1718.9336.4375 1.2617.789.3282.3555.5703.8125.7227 1.3711.1523.5547.2226 1.2188.2226 1.9844zm-2.5507-4.7852h-.9844c-.418 0-.7735.0391-1.0703.1094-.293.0781-.5352.1875-.7188.3438-.1875.1484-.3203.328-.4062.539-.086.2149-.129.457-.129.7305 0 .4687.1212.836.3673 1.1016.2421.2695.578.4023 1.0117.4023.3594 0 .6953-.1133 1-.3398.3047-.2266.6133-.5547.9297-.9883zm13.9101 4.7461a.4097.4097 0 01-.0625.2188c-.039.0664-.1094.1172-.207.1601-.0977.0352-.2305.0704-.3985.0938-.168.0195-.375.0273-.621.0273-.2579 0-.4688-.0078-.6368-.0273-.168-.0235-.3046-.0586-.4023-.0938-.0938-.043-.164-.0937-.2031-.1601-.043-.0625-.0625-.1367-.0625-.2188v-6.3593c0-.543-.0313-.9688-.0977-1.2774-.0625-.3086-.1601-.5742-.2812-.793-.125-.2226-.2852-.3906-.4805-.5156-.1953-.121-.4219-.1797-.6797-.1797-.332 0-.6601.1446-1 .4414-.332.2891-.6836.7149-1.0469 1.2696v7.414c0 .082-.0195.1563-.0625.2188-.039.0664-.1093.1172-.211.1601-.0976.0352-.2304.0704-.3944.0938-.1641.0195-.375.0273-.629.0273-.25 0-.4609-.0078-.6288-.0273-.1602-.0235-.293-.0586-.3907-.0938-.1015-.043-.1719-.0937-.211-.1601-.0429-.0625-.0624-.1367-.0624-.2188v-11.1601c0-.082.0156-.1524.0508-.2188.0312-.0625.0937-.1133.1836-.1562.0898-.039.203-.0742.3437-.0938.1406-.0234.3203-.0312.5313-.0312.2187 0 .3984.0078.543.0312.1445.0196.2577.0547.3398.0938.0742.043.1328.0937.168.1562.0351.0664.0507.1367.0507.2188v1.289c.5078-.664 1.0235-1.1601 1.5508-1.4921.5234-.336 1.0703-.5 1.6406-.5.625 0 1.1524.121 1.582.375.4298.246.7735.5898 1.0391 1.0195.2656.4258.4531.9297.5703 1.5078.1133.5742.1758 1.2656.1758 2.0703zm5.5781-1.3867c0 .7735-.1093 1.3008-.332 1.5625-.2226.2695-.621.4024-1.1992.4024-.5781 0-.9766-.1329-1.1953-.3946-.2188-.2617-.3281-.7617-.3281-1.496 0-.7813.1093-1.3087.332-1.5743.2265-.2695.6289-.4023 1.211-.4023.5702 0 .9648.1328 1.1874.3945.2149.2656.3242.7656.3242 1.5078zm16.3633-13.0195c0 .2422-.0039.4453-.0234.621-.0156.172-.043.3087-.0781.4102-.0352.1055-.0782.1836-.129.2305-.0507.0508-.1093.0781-.168.0781h-3.332v13.043c0 .082-.0195.1562-.0663.2266-.047.0625-.1211.1171-.2227.1601-.1016.039-.2422.0742-.418.0977-.1758.0273-.3945.039-.6523.039-.2617 0-.4766-.0117-.6524-.039-.1757-.0235-.3164-.0586-.418-.0977-.1054-.043-.1757-.0976-.2226-.1601-.0469-.0704-.0664-.1446-.0664-.2266v-13.043h-3.332c-.0664 0-.125-.0273-.1758-.0781-.0469-.0469-.086-.125-.1211-.2305-.0352-.1015-.0625-.2382-.0781-.4101-.0196-.1758-.0274-.379-.0274-.6211 0-.25.0078-.461.0274-.6367.0156-.1758.043-.3164.0781-.418.0352-.1055.0742-.1797.121-.2266.0509-.0468.1095-.0664.1759-.0664h9.3828c.0586 0 .1133.0196.168.0664.0507.047.0937.1211.1289.2266.0351.1016.0625.2422.078.418.0196.1757.0235.3867.0235.6367zm4.0313 14.4062c0 .082-.0196.1563-.0625.2188-.039.0664-.1094.1172-.211.1601-.0976.0352-.2304.0704-.3945.0938-.164.0195-.375.0273-.6289.0273-.254 0-.4648-.0078-.629-.0273a2.1799 2.1799 0 01-.3944-.0938c-.1016-.043-.172-.0937-.211-.1601a.4097.4097 0 01-.0625-.2188v-11.1328c0-.082.0235-.1562.0625-.2187.039-.0664.1094-.1211.211-.164.1015-.047.2343-.0782.3945-.1056.164-.0273.375-.039.6289-.039.254 0 .4648.0117.629.039.164.0274.2968.0586.3944.1055.1016.043.172.0977.211.164.043.0626.0625.1368.0625.2188zm.211-14.9492c0 .6367-.1056 1.0703-.3204 1.3164-.2148.2422-.6055.3594-1.1875.3594s-.9805-.1133-1.1797-.3477c-.2031-.2343-.3047-.6562-.3047-1.2656 0-.6328.1055-1.0742.3164-1.3203.207-.2422.6016-.3672 1.1914-.3672.5743 0 .9688.1172 1.1758.3594.207.2344.3086.6562.3086 1.2656zm9.3124 13.1719c0 .2187-.0039.3984-.0156.5469a2.7891 2.7891 0 01-.043.371c-.0156.0977-.0351.1797-.0625.2422-.0234.0625-.0781.1407-.1562.2383-.086.0938-.2266.2149-.422.3516-.1991.1367-.4257.2578-.6835.371a4.5266 4.5266 0 01-.8242.2579c-.2969.0703-.6094.1055-.9258.1055-.7031 0-1.332-.1329-1.875-.4024-.5469-.2656-1.004-.6601-1.379-1.1836-.367-.5195-.6483-1.1601-.8358-1.9101s-.2852-1.6094-.2852-2.5782c0-1.1171.1172-2.0859.3477-2.8945.2304-.8164.5507-1.4883.9609-2.0234.4101-.5352.8984-.9297 1.461-1.1914.5624-.2578 1.1796-.3868 1.8554-.3868.2734 0 .543.0274.8086.0899.2656.0547.5117.1367.7422.2344.2265.1015.4336.211.6133.336.1836.1288.3125.2343.3867.328.0781.0899.1328.168.164.2305.0274.0664.0508.1445.0704.2422.0156.1055.0312.2265.039.371.0117.1524.0156.3282.0156.5352 0 .4883-.0312.8282-.1015 1.0235-.0703.1953-.1602.2969-.2656.2969-.1172 0-.2461-.0625-.375-.1758a8.3103 8.3103 0 00-.4649-.3907c-.1758-.1406-.3867-.2734-.6328-.3867-.246-.1133-.543-.1758-.8867-.1758-.6758 0-1.1875.3164-1.5469.9454-.3555.6289-.5312 1.5507-.5312 2.7656 0 .5976.043 1.1289.1328 1.5898.0898.457.2187.8399.3945 1.1485.1758.3046.3945.539.6563.6953.2695.1523.5742.2304.9257.2304.3555 0 .664-.0664.922-.1992.2538-.125.4804-.2695.6718-.4297a9 9 0 00.4883-.4296c.1289-.1329.2382-.1954.3242-.1954.0625 0 .1133.0196.1562.0625.043.043.0743.1211.0977.2305.0234.1133.043.2617.0547.4336.0156.1758.0234.4023.0234.6797zm4.9219.3906c0 .7735-.1094 1.3008-.332 1.5625-.2227.2695-.625.4024-1.1993.4024-.578 0-.9765-.1329-1.1953-.3946-.2226-.2617-.332-.7617-.332-1.496 0-.7813.1133-1.3087.336-1.5743.2265-.2695.6288-.4023 1.2109-.4023.5703 0 .9648.1328 1.1836.3945.2187.2656.328.7656.328 1.5078zm14.8242.4375c0 .2461-.0078.461-.0234.6328-.0196.168-.047.3086-.0782.4219-.0351.1133-.078.1953-.1289.2422-.0546.0508-.1132.0781-.1796.0781h-6.1055c-.2227 0-.414-.082-.5664-.246-.1563-.1602-.2344-.4259-.2344-.793v-14.6954c0-.078.0234-.1562.0664-.2265.0469-.0625.1211-.1172.2227-.1602.1015-.043.2421-.0742.418-.0976.1757-.0274.3945-.0391.6562-.0391.2656 0 .4883.0117.6601.039.168.0235.3086.0548.4102.0977.1016.043.1758.0977.2226.1602.043.0703.0665.1484.0665.2265v13.0196h4.1836c.0664 0 .1289.0195.1796.0664.0508.0469.0938.121.129.2265.0351.1055.0585.2422.078.4141.0157.1719.0235.379.0235.6328zm6.4922-.1445c0 .3672-.0195.6484-.0586.8437-.039.1953-.086.332-.1484.4102-.0625.082-.1524.1523-.2735.2148-.121.0625-.2617.1172-.4219.1602-.1601.0469-.3359.082-.5273.1055a3.9594 3.9594 0 01-.5703.039c-.5156 0-.961-.082-1.3399-.2383-.375-.1562-.6875-.4023-.9375-.7304-.246-.3282-.4296-.7422-.5468-1.2461-.1133-.5-.1719-1.0899-.1719-1.7735v-5.7148h-1.1172c-.1289 0-.2305-.0977-.2969-.293-.0703-.1953-.1054-.5234-.1054-.9844 0-.246.0078-.4492.0234-.6171.0195-.1641.0469-.297.082-.3946.0313-.0937.0782-.164.129-.207.0507-.043.1132-.0625.1796-.0625h1.1055v-2.496c0-.0821.0156-.1603.0547-.2267.039-.0625.1094-.121.207-.168.0977-.0468.2344-.078.4024-.1015.1718-.0195.3789-.0273.6289-.0273s.461.0078.6289.0273c.1719.0235.3047.0547.4023.1016.0938.0469.164.1054.2031.168.043.0663.0625.1445.0625.2265v2.4961h1.9922c.0703 0 .1328.0195.1797.0625.0547.043.0977.1133.1328.207.0352.0977.0586.2305.0743.3946.0195.168.0273.371.0273.6171 0 .461-.0352.7891-.1016.9844-.0703.1953-.1718.293-.3007.293h-2.004v5.2422c0 .6094.0782 1.0664.2383 1.3672.1563.3047.4375.457.8438.457.1367 0 .2578-.0117.3672-.043a1.7095 1.7095 0 00.293-.1015c.0859-.0352.1562-.0664.2148-.0977.0586-.0312.1133-.043.1601-.043.043 0 .082.0118.1172.043.0352.0313.0703.086.0899.1758.0156.082.039.2031.0546.3516.0196.1562.0274.3437.0274.578M353.586 344.0195c0 .0899-.0196.168-.0548.2305-.0312.0664-.0898.1172-.1718.1602-.082.039-.1953.0664-.336.0859-.1406.0156-.3125.0234-.5156.0234-.2226 0-.4023-.0078-.539-.0234-.1368-.0195-.2461-.0469-.332-.086-.086-.043-.1485-.0976-.1837-.1601-.039-.0625-.0586-.1406-.0586-.2344v-1.2383c-.4726.6172-.9726 1.0938-1.4882 1.4375-.5196.3399-1.0938.5118-1.7227.5118-.6992 0-1.2969-.168-1.7774-.4961-.4843-.3282-.8789-.7735-1.1835-1.332-.3047-.5548-.5274-1.207-.6641-1.9532-.1367-.746-.207-1.5312-.207-2.3555 0-.9882.0898-1.8828.2617-2.6757.1758-.7891.4297-1.4649.7695-2.0235.336-.5586.754-.9844 1.2578-1.289.4961-.297 1.0742-.4454 1.7266-.4454.5117 0 .9805.129 1.3984.379.4219.2578.836.6289 1.25 1.1171v-6.0273c0-.086.0156-.1602.0547-.2266.039-.0664.1055-.125.207-.168.0977-.0468.2305-.078.3946-.1054.164-.0273.375-.039.6289-.039s.4648.0117.6289.039c.1601.0273.293.0586.3906.1055.0938.043.164.1015.2031.168.043.0663.0625.1406.0625.2265zm-2.5704-7.453c-.371-.5665-.7304-.9962-1.0664-1.3009-.3398-.2969-.6953-.4492-1.0703-.4492-.332 0-.625.1055-.8672.3086-.246.2031-.4375.4727-.586.8164-.1484.3438-.2577.7227-.328 1.1406-.0743.4258-.1094.8555-.1094 1.293 0 .4727.0312.9219.0898 1.3633.0625.4414.164.836.3047 1.1797.1406.3476.3281.625.5625.832.2344.211.5274.3125.8867.3125.1758 0 .3516-.0313.5196-.0938.168-.0625.3359-.1601.5117-.3085.1758-.1407.3555-.3243.543-.5547.1875-.2305.3906-.5078.6093-.8399zm8.2149 6.0663c0 .7735-.1094 1.3008-.336 1.5625-.2187.2695-.621.4024-1.1992.4024-.5742 0-.9765-.1329-1.1914-.3946-.2226-.2617-.332-.7617-.332-1.496 0-.7813.1133-1.3087.332-1.5743.2266-.2695.629-.4023 1.2149-.4023.5703 0 .9609.1328 1.1835.3945.2188.2656.3282.7656.3282 1.5078zm11.7734 1.9453l.2617.6836c.125.3242.2149.6055.2774.8516.0586.2422.086.4726.086.6992 0 .3828-.0587.711-.1759.9883-.1172.2734-.2734.5-.4726.6758-.2032.1757-.4336.3046-.7032.3906-.2695.0898-.5546.1328-.8632.1328-.3047 0-.586-.0234-.8399-.0742-.2617-.0508-.4726-.1055-.6406-.164-.168-.0548-.289-.1055-.3633-.1485-.0742-.043-.121-.0938-.1562-.164-.0313-.0665-.0508-.1524-.0664-.254-.0118-.1015-.0196-.25-.0196-.4336 0-.332.0235-.5625.0781-.6953.0508-.125.1446-.1914.2813-.1914h1.1953c.1992 0 .3477-.0508.4492-.1563.0977-.1015.1485-.25.1485-.4296 0-.1016-.0196-.2149-.0547-.3399-.0313-.121-.0742-.2539-.1211-.3867l-.3281-.8867c-.2852-.0274-.5547-.0742-.8204-.1485-.2656-.0703-.539-.168-.8242-.2968-.2851-.129-.5234-.2618-.7187-.4024-.1992-.1367-.3399-.2617-.4297-.371-.0899-.1094-.1524-.2657-.1914-.4727-.039-.2031-.0547-.4961-.0547-.879 0-.2616.0078-.4726.0195-.6484.0157-.1757.0352-.3164.0664-.4257.0313-.1094.0743-.1836.125-.2305a.2633.2633 0 01.1836-.0703c.0938 0 .2305.0703.4063.211.1758.1366.4023.289.6758.457.2734.164.6015.3202.9843.457.3829.1406.8243.207 1.3282.207.328 0 .625-.0469.8828-.1406.2656-.0977.4844-.2305.668-.4063.1835-.1719.3203-.3867.418-.6445.0937-.2578.1444-.539.1444-.8555 0-.3672-.082-.6836-.246-.9453-.1641-.2617-.379-.4922-.6446-.6992-.2656-.2031-.5664-.3945-.9062-.5742-.332-.1797-.6797-.3672-1.039-.5664a8.986 8.986 0 01-1.0392-.6836c-.3398-.254-.6406-.5586-.9023-.914-.2695-.3517-.4844-.7735-.6484-1.254-.1641-.4844-.2461-1.0625-.2461-1.7383 0-.7695.121-1.4531.3554-2.043.2344-.5859.5547-1.0703.957-1.457.4024-.3906.875-.6797 1.418-.871.547-.1915 1.125-.2891 1.7344-.2891.3164 0 .6328.0312.9492.0898.3125.0586.6094.1367.8828.2383.2735.1016.5157.211.7305.336.211.1288.3516.2304.4219.3163.0664.0782.1133.1524.1367.207.0274.0587.0469.1368.0625.2344.0195.0938.0313.2149.0352.3633.0078.1446.0117.3242.0117.543 0 .2383-.004.4414-.0117.6094-.0118.168-.0313.3047-.0547.414-.0235.1055-.0586.1875-.1016.2344-.0469.0508-.1055.0781-.1836.0781-.0742 0-.1914-.0625-.3594-.1757-.164-.1172-.3671-.2422-.6054-.3829-.2422-.1367-.5196-.2617-.836-.371-.3164-.1172-.6601-.172-1.043-.172-.2929 0-.5507.043-.7695.1329-.2187.086-.4023.207-.5507.3633a1.4349 1.4349 0 00-.3282.5546c-.0742.2149-.1093.4415-.1093.6836 0 .3594.082.672.2421.9336.1602.2618.379.4922.6485.6993.2734.203.582.3945.9258.5742.3398.1797.6914.3672 1.0507.5664.3594.2031.711.4297 1.0508.6836.3438.2539.6485.5586.918.9101.2695.3555.4883.7735.6523 1.25.1641.4805.2461 1.047.2461 1.6953 0 .8399-.1367 1.5977-.4062 2.2813-.2735.6797-.6758 1.25-1.207 1.7148-.5352.4688-1.207.797-2.0274.9922zm14.5234-12.1406c.2852 0 .4883.0781.6016.2266.1094.1484.168.3671.168.6484v10.707a.4097.4097 0 01-.0625.2188c-.039.0664-.1094.1172-.207.1601-.0977.0352-.2305.0704-.3985.0938-.168.0195-.375.0273-.621.0273-.2579 0-.4688-.0078-.6368-.0273-.168-.0235-.3047-.0586-.4024-.0938-.0937-.043-.164-.0937-.203-.1601-.043-.0625-.0626-.1367-.0626-.2188v-9.0234h-4.1133v5.2422c0 .6094.0782 1.0664.2383 1.3672.1563.3047.4375.457.8438.457.1367 0 .2578-.0117.3672-.043a1.7095 1.7095 0 00.293-.1015c.0859-.0352.1562-.0664.2148-.0977.0586-.0312.1133-.043.1601-.043.043 0 .082.0118.1211.043.0352.0313.0664.086.086.1758.0195.082.039.2031.0546.3516.0196.1562.0274.3437.0274.578 0 .3673-.0195.6446-.0547.8321-.0312.1875-.0781.3242-.1445.4102-.0586.0898-.1524.164-.2774.2265-.121.0625-.2656.1172-.4257.1602-.1602.0469-.336.082-.5235.1055a4.0525 4.0525 0 01-.5742.039c-.5117 0-.961-.082-1.3399-.2383-.375-.1562-.6875-.4023-.9375-.7304-.246-.3282-.4296-.7422-.543-1.2461-.1171-.5-.1757-1.0899-.1757-1.7735v-5.7148h-1.1172c-.1289 0-.2305-.0977-.2969-.293-.0703-.1953-.1054-.5234-.1054-.9844 0-.246.0078-.4492.0234-.6171.0195-.1641.0469-.297.082-.3946.0313-.0937.0782-.164.129-.207.0507-.043.1132-.0625.1796-.0625H377v-2.496c0-.0821.0156-.1603.0547-.2267.039-.0625.1094-.121.207-.168.0977-.0468.2344-.078.4024-.1015.1718-.0195.3789-.0273.6289-.0273s.461.0078.6289.0273c.1719.0235.3047.0547.4023.1016.0938.0469.164.1054.2031.168.043.0663.0625.1445.0625.2265v2.4961zm.957-3.3398c0 .6328-.1054 1.0703-.3202 1.3125-.211.2421-.6055.3632-1.1875.3632s-.9805-.1171-1.1797-.3515c-.2031-.2344-.3047-.6563-.3047-1.2617 0-.6368.1055-1.0743.3164-1.3243.207-.2421.6055-.3671 1.1914-.3671.5742 0 .9688.121 1.1758.3593.207.2344.3086.6563.3086 1.2696" fill="#4e4a3d"/></svg>
