<svg xmlns="http://www.w3.org/2000/svg" version="1" viewBox="0 0 800 800"><path d="M243.4 20.9c.4.6 3.4 2.5 6.7 4.1 23.5 11.9 45 32.4 56.1 53.6 17 32.4 16.2 72.3-2.2 109.6-4.3 8.5-13.2 23.4-14.9 24.8-.3.3-2.4 2.7-4.6 5.5-6 7.6-19.9 21.2-30.5 30.1-5.2 4.3-9.7 8.1-10 8.4-.3.3-2.5 2.1-5 4s-5.8 4.7-7.5 6.1c-24.1 21-39.3 36.9-52.2 54.9-16.6 23.1-31.6 50.1-35.8 64.6-1.4 4.9-4.3 14.1-6.4 20.4-3.5 10.3-5.7 17.7-6.6 22-.2.8-1 4.9-1.9 9-2.9 14.1-4.3 31.1-4.1 50 .2 10.2.5 20.1.9 22 .3 1.9 1 6.6 1.5 10.5 3.2 21.3 8.8 39.4 18 58.8 2.3 4.7 4.1 8.9 4.1 9.3 0 1.2 8 16.4 13.5 25.9 12.4 21 25.7 38.3 44 56.9 16.1 16.4 30.8 28.7 46.5 38.8 27.2 17.5 59 30.5 85 34.8 9.6 1.6 13.2 1.9 25 2.4l11.5.6-7-2c-3.8-1.1-8.4-2.2-10.1-2.4-10.1-1.7-34.4-11-48.6-18.7-13.5-7.3-35-22.1-48.7-33.4-1.3-1.1-4.3-3.6-6.6-5.5s-6.4-5.3-9.1-7.5c-11.2-9.1-27.2-25.1-36.1-36.2-15.3-19.2-29.8-45.7-37.6-68.9-4.2-12.3-9.3-28.8-10.2-33-.2-1-1.3-6-2.4-10.9-6.8-30.5-7.5-57.9-2.1-87.5 1.8-10.1 6.6-27.4 11-40 2.3-6.3 4.6-14 5.2-17 2.9-15.5 10.1-28.4 33-58.8 17.2-22.9 34.7-41.7 50.3-54.3 4.3-3.5 8.8-7.1 10-8 1.1-1 7-5.6 13-10.5 11.5-9.1 21.7-17.5 22.5-18.5.3-.3 9.3-7.5 20-15.9 34.9-27.5 46.3-38 57.8-53.2 16.2-21.6 20.6-44.2 13.1-68.4-8.5-27.7-30.8-47.6-67.3-60.4-8.5-2.9-21.3-6.6-26.6-7.6-1.4-.3-3.3-.7-4.2-1-1-.3-3-.7-4.5-1-1.6-.3-3.5-.7-4.3-.9-.8-.3-3.3-.7-5.5-1.1-2.2-.3-5.8-.9-8-1.4-2.2-.5-6.2-1.2-9-1.6-2.7-.3-5.9-.8-7-1-6.5-1.3-12.7-1.6-12.1-.5zM532 203.6c1.4 1 3.2 2.4 4 3.1.8.7 6.7 4.9 13 9.4 23.7 16.7 44 34.7 57.6 51.1 18.3 21.8 35.1 53.9 48.9 93.1l2.8 7.8-2.3 5.2c-1.2 2.9-2.6 6-3.1 6.9-1.5 3-4.9 17.1-5.6 23.3-3.2 28.1 6.6 54.8 30 82 13 15.1 25.8 26 31.4 27 2.9.4 7.4-2.8 9.5-6.8 5.3-10.5 8.1-34.2 5.9-49.9-1.7-11.2-6.6-26.5-11.8-36.6-7.9-15.5-15.9-26.2-31.5-42.6-3.2-3.3-5.8-6.5-5.8-7-.2-4.2-1.3-9.3-6.4-29.6-2.4-9.6-16.5-40.8-21.8-48.3-18.4-26.2-51.4-55.6-84.2-75.2-9.9-5.9-24.9-12.9-30.1-14l-3-.7 2.5 1.8zm148.1 130.3c-1.1 1.1-2.2 2.8-2.2 3.6-.1.8-.2 2.5-.3 3.7-.3 3.5 2.2 11.5 6.1 19.8 6 12.5 16.2 24.4 27.8 32.2 10 6.7 30.3 14.5 42.5 16.2 2.5.4 7.7 1.1 11.5 1.6 15.4 2.2 22.9 1.7 26.9-1.8 2.5-2.3 1.7-10.1-1.8-17-6.6-13-18.7-25.6-35.1-36.7-21.1-14.2-41.8-21.6-64.6-23.2-7.9-.5-8.8-.4-10.8 1.6z"/><path d="M238.5 382c-9.2 2.5-13.5 4.9-19.6 11-7.6 7.6-10.2 14.2-10.2 26.8 0 8.6.3 9.7 3.7 16.7 5.4 10.9 11.3 15.8 32.1 26.2 21.5 10.7 21 10.4 25.2 14.4 11.1 10.8 8 29.8-6.1 37.1-5.4 2.8-8.7 3.3-18.7 3.2-11.2-.2-20.3-3.2-33.6-11-2.9-1.7-3.4-1.8-4.8-.3-2 2-2.4 11.9-.5 15.4 2.4 4.4 15.6 10.7 26 12.3 7.6 1.2 26.2.7 31.5-.7 13.2-3.7 24.8-12.7 29.7-23.1 5.8-12.4 5.6-27.9-.7-38.6-5.7-9.7-11.5-13.9-34.5-25.2-9.1-4.4-18.4-9.6-20.7-11.6-5.3-4.6-8.3-10.8-8.3-17.2.1-12.6 9.5-20.7 24.2-20.6 9.2 0 11.9.7 22.5 5.8 5 2.4 9.8 4.4 10.6 4.4 1.6 0 2.7-4.1 2.7-9.7 0-5.7-2.3-8.7-8.9-11.7-12.5-5.6-29.3-7.1-41.6-3.6zm131.3 37.5c-.1.2-2.8.4-5.8.6-28.8 1.4-47 23.7-47.2 57.9-.3 36.8 17.5 56.8 50.4 56.8 17 0 28.3-4.2 38.4-14.2 8.2-8.3 13.2-19 14.9-32.5.8-6 .8-21.3 0-25.1-.2-1.4-.7-3.9-1-5.5-1.6-8.3-7.4-19.3-13.1-25.1-6.3-6.3-17.2-10.9-27.8-12-3.3-.3-6.6-.7-7.3-.9-.6-.2-1.3-.2-1.5 0zm14.5 19.6c8.8 4.5 13.5 12.2 16.2 26.4.9 5.3.6 20.8-.6 26.5-2.4 11.3-8.9 20.3-17.4 24.1-5.6 2.5-15.6 3.3-22 1.8-16.1-3.9-23.5-16.6-23.6-40.9-.2-23.8 9.4-38.3 27-40.9 6.2-.9 15.2.4 20.4 3zm199.2-18.9c-7.1.8-20.9 5-25.5 7.7-4.9 2.9-6.4 5.2-6.6 10.2-.1 3.5.3 5.3 1.7 6.7 1.8 2 1.9 2 8.3-1.4 14.7-7.8 28.1-10 38.6-6.3 9.2 3.2 12.1 8.2 12.8 21.9l.4 9.5-14.8.1c-22 .3-35 4-43.6 12.6-6.3 6.3-8.3 11.7-8.3 22.3.1 7.7.5 9.7 2.7 14.1 5.6 10.6 16.7 16.8 31 17.3 11.6.4 21.2-3.1 30.8-11l4.6-3.7v5.4c0 3 .6 6 1.3 6.7 1.5 1.5 12.6 1.6 14.2 0 1.4-1.4 1.7-72.9.4-82.3-2.7-19.5-13.6-28.4-37-30.3-2.2-.1-7.1.1-11 .5zm29.5 73.2v11.4l-6.2 5.6c-7.7 7-13.9 9.5-22.8 9.2-11.3-.3-17.9-6.7-18-17.3-.1-14.1 9.8-19.8 35.3-20.2l11.7-.2v11.5zm-176.5-71.1c-.8.4-1.5 1.7-1.5 2.9 0 1.7 27.7 77.8 31.1 85.3.5 1.1 2.2 5.8 3.9 10.5 1.7 4.7 3.8 9.5 4.6 10.7 1.3 2 .8 3.8-6.2 21.4-6.6 16.6-7.4 19.3-6.2 20.6 2.2 2.1 15.2 2.2 18.1 0 1-.7 3.8-6.8 6.3-13.7 5.9-16.2 37.7-104.5 44-121.8 4.5-12.5 4.6-13.4 3-15-2.2-2.2-15-2.3-17-.1-.8.8-3.2 6.8-5.5 13.4-9 26.6-24 70.1-24.7 71.9-.8 2.1.4 5.3-19.4-50.6-10-28.4-12.7-34.9-14.4-35.5-3-1-14.4-1-16.1 0zM19.3 450.2c-9.5 2.5-11.5 18.4-5.4 42.1 2.4 9.1 7.8 22.8 11.6 29.2 5.7 9.8 19.8 25.4 29 32 1.5 1.1 3.2 2.5 3.9 3 2.5 2.3 17.5 11.4 24.4 14.9 24.1 12.1 31.2 10.9 31.6-5.6 1.1-40.8-21.1-77.8-62.3-104.2-15.6-10-25.3-13.4-32.8-11.4zm649.3 143.6c-8.8 26.6-28.6 56.8-55.7 84.9-9.4 9.7-20.4 19.7-27.6 25-2.8 2.1-6.2 4.6-7.5 5.5-1.3.9-8.7 6.4-16.5 12.2-10 7.4-18.5 12.7-29.1 18-8.3 4.2-15.4 7.6-15.9 7.6s-2.7.8-4.9 1.9c-11 5.2-33.8 11.6-53.4 15-17.9 3.1-29.9 4.1-49.5 4.2-16.4.1-30-.8-41.7-2.5-2.1-.3-5.3-.8-7-1.1-25.9-3.6-56.5-13.8-83.3-27.5-37.8-19.4-68.3-40.6-90.6-62.9-13.7-13.7-19.8-21.3-33.9-42.6-5.2-7.7-11.6-16.3-14.3-19.2-11-11.7-30.6-21.8-46.5-23.9-2-.3-5-.7-6.7-1-5.2-.8-22.7-.5-30.5.6-14.5 1.8-26.5 5.8-43.3 14.4L.5 607.6l-.3 13.6-.3 13.6 14.8-.1c41.7-.1 72.3 7.9 114.1 29.9 6.8 3.5 15.1 8.2 18.5 10.3 28.6 17.7 41.9 26.2 59.2 37.6 18.3 12.1 33.6 21.2 44 26.2 2.2 1.1 4.9 2.4 6 3 3.7 2 36.6 15.5 46.3 18.9 5.4 1.9 16.9 5.4 25.7 7.8 15.7 4.3 18.9 5.1 25 6.2 1.7.2 3.8.7 4.7 1 3.5 1 15.1 3 23.3 3.9 3.2.4 6.8.9 7.8 1.1 11.1 2.1 55 2.1 67.7 0 4.6-.8 12.5-2 13.5-2.1.6-.1 2.8-.5 5-.9s5-1 6.1-1.2c12.4-2.3 35.3-10.8 52.6-19.4 19-9.5 48.2-28.6 57.4-37.5 1.2-1.1 6.1-5.6 11-10 12.3-11 14-12.8 28-29.5 9.5-11.4 23-34.7 30.7-53 4.5-10.6 11.5-38.1 10.5-41-.2-.4-1.6 3.1-3.2 7.8z"/></svg>
