<svg xmlns="http://www.w3.org/2000/svg" viewBox="0 0 64 64"><path fill="#394d5c" d="M3 3h58v58H3z"/><path fill="#7d8d9c" d="M3 3h16v8H3z"/><path fill="#e1462b" d="M6 6h2v2H6z"/><path fill="#f9bb4b" d="M10 6h2v2h-2z"/><path fill="#55b56a" d="M14 6h2v2h-2z"/><path fill="#aabece" d="M19 3h42v8H19z"/><path fill="#f4f4e6" d="M53 61H11V15h34l8 8z"/><path fill="#d6d5c5" d="M53 23h-8v-8z"/><circle cx="32" cy="30" r="11" fill="#ffd782"/><g fill="#394d5c"><path d="M29.293 25.293L28 26.586l-1.293-1.293-1.414 1.414L26.586 28l-1.293 1.293 1.414 1.414L28 29.414l1.293 1.293 1.414-1.414L29.414 28l1.293-1.293zM38.707 26.707l-1.414-1.414L36 26.586l-1.293-1.293-1.414 1.414L34.586 28l-1.293 1.293 1.414 1.414L36 29.414l1.293 1.293 1.414-1.414L37.414 28zM36.051 36.316C36.021 36.23 35.187 34 32 34c-3.242 0-4.043 2.293-4.051 2.316l-1.9-.632C26.1 35.533 27.333 32 32 32s5.9 3.533 5.949 3.684zM24 57h-2v-3h-5a1 1 0 01-.759-1.65l6-7A1 1 0 0124 46v6h2v2h-2zm-4.826-5H22v-3.3zM46 57h-2v-3h-5a1 1 0 01-.759-1.65l6-7A1 1 0 0146 46v6h2v2h-2zm-4.826-5H44v-3.3zM33 57h-2a3 3 0 01-3-3v-6a3 3 0 013-3h2a3 3 0 013 3v6a3 3 0 01-3 3zm-2-10a1 1 0 00-1 1v6a1 1 0 001 1h2a1 1 0 001-1v-6a1 1 0 00-1-1z"/></g><path fill="#d6d5c5" d="M16 30h-2V19a1 1 0 011-1h5v2h-4zM14 32h2v2h-2z"/></svg>
