<svg xmlns="http://www.w3.org/2000/svg" fill="none" viewBox="0 0 18 14"><path fill="#000" d="M17.297 8.24805c.3884 0 .7032-.31479.7032-.70313V2.93945c0-1.55081-1.2617-2.812497-2.8125-2.812497H2.81266C1.26185.126953.00016022 1.38864.00016022 2.93945v8.12105c0 1.5509 1.26168978 2.8125 2.81249978 2.8125H15.1877c1.5508 0 2.8125-1.2616 2.8125-2.8125 0-.3883-.3148-.7031-.7032-.7031-.3883 0-.7031.3148-.7031.7031 0 .7755-.6308 1.4063-1.4062 1.4063H2.81266c-.77541 0-1.40625-.6308-1.40625-1.4063V3.08845L7.51498 6.8869c.45806.2848.97162.42722 1.48518.42722.51356 0 1.02714-.14242 1.48514-.42722l6.1086-3.79845v4.45647c0 .38834.3148.70313.7031.70313zM9.74273 5.69268c-.45801.2848-1.02712.28484-1.48514 0L1.99313 1.7973c.23091-.16615.51399-.2641.81953-.2641H15.1877c.3055 0 .5886.09798.8195.26413L9.74273 5.69268z"/></svg>
