<svg xmlns="http://www.w3.org/2000/svg" fill="none" viewBox="0 0 21 21"><path fill="#000" d="M9.54488 12.3635l8.07952 8.0796H1.46531l8.07957-8.0796zm8.92882-2.93083V19.5937l-8.0794-8.0795 1.6142-1.61427c-.0307-.03747-.0615-.07503-.0925-.11283-.2187-.26658-.4442-.54174-.6615-.83195L.615982 19.5937V2.98568c0-.2211.179299-.4004.400398-.4004H10.742c.9147-1.41277 2.5036-2.35034 4.3083-2.35034 2.8289 0 5.1304 2.30149 5.1304 5.13031.0001 1.78642-.855 3.0106-1.707 4.06742zM8.49255 6.67664H5.52496v1.13049H7.2731c-.23896.73729-.93229 1.27191-1.74814 1.27191-1.01301 0-1.83712-.82411-1.83712-1.83712s.82419-1.83711 1.83712-1.83711c.4092 0 .79623.13149 1.11935.38022l.68965-.89577c-.52252-.40232-1.14811-.61493-1.809-.61493-1.63636 0-2.96768 1.33132-2.96768 2.96767 0 1.63636 1.33124 2.9677 2.96768 2.9677 1.63635 0 2.96767-1.33134 2.96767-2.9677v-.56536h-.00008zM18.9796 5.36525c0-2.17-1.7591-3.92911-3.9292-3.92911-2.17 0-3.9291 1.75919-3.9291 3.92911 0 3.26197 3.6886 4.19667 3.6886 8.08285H15.291c-.0002-3.8861 3.6886-4.82079 3.6886-8.08285zm-3.9293-1.79699c-.8456 0-1.5311.68549-1.5311 1.53105 0 .84564.6856 1.53112 1.5311 1.53112.8457 0 1.5312-.68556 1.5312-1.53112 0-.84556-.6855-1.53105-1.5312-1.53105z"/></svg>
