<svg xmlns="http://www.w3.org/2000/svg" viewBox="0 0 400.174 400.174"><path fill="#33E739" d="M201.38 88.422c113.12-12.44 149.88-84 150-84 1.856-3.567 6.252-4.953 9.819-3.097 1.799.936 3.126 2.581 3.661 4.537 37.6 127.52 17.08 215.44-26.08 267.6-16.709 20.331-38.11 36.296-62.36 46.52-22.339 9.474-46.587 13.584-70.8 12-46.36-3.24-88.68-28-108.32-72.36-5.032-11.34-8.284-23.388-9.64-35.72-2.743-24.717 2.083-49.685 13.84-71.6 12.622-23.385 32.719-41.863 57.08-52.48 13.593-5.989 28.031-9.834 42.8-11.4z"/><path fill="#009549" d="M350.58 7.102c.099-4.019 3.437-7.198 7.456-7.099 4.019.099 7.198 3.437 7.099 7.456-.007.296-.033.59-.076.883 0 .36-6.36 84-88 168.64l-.76.8c-19.18 19.673-40.226 37.436-62.84 53.04l49.04 9.12c3.909.943 6.313 4.876 5.37 8.784-.854 3.538-4.189 5.902-7.81 5.536l-64-12c-58.36 36.96-157.28 71.08-165.92 151.6-.535 3.985-4.199 6.782-8.184 6.247-3.793-.509-6.544-3.868-6.296-7.687 10.32-96.52 108.4-121.36 174.56-163.56l.92-.6c26.403-16.71 50.861-36.311 72.92-58.44l-5.8-57.4c-.535-3.985 2.262-7.649 6.247-8.184s7.649 2.262 8.184 6.247c.022.165.039.331.049.497l4.4 44.56c68.041-76.4 73.401-148.12 73.441-148.44z"/></svg>
