<svg xmlns="http://www.w3.org/2000/svg" viewBox="0 0 596.36544 219.87531"><defs><clipPath id="a"><path d="M40 129h150v161H40zm0 0"/></clipPath><clipPath id="b"><path d="M95.496094 277.62891c1.21875.49218 3.546875 2.01171 5.093746 2.74609.76172.36328 1.34375.44922 1.82032 1.03906.70703.0391 5.35937 2.19531 6.57031 2.67188 15.47656 6.09375 34.01172 8.41797 49.13281 1.72265 1.73438-.76562 5.26953-2.51953 6.83594-3.54687l2.47265-1.64453c.53516-.30469.79297-.39453 1.20704-.71875l2.35937-1.79688c1.32031-.8164.98828-.79687 1.74609-1.41406l4.94532-4.45313 4.03906-4.7539c4.03516-5.59375 7.10937-11.77735 8.02344-19.16797-.32813.41016-.11328.0742-.35157.70312-.0937.23829-.16406.51563-.25781.83985-2.42187 8.09375-10.17969 17.34375-16.38672 22.51953-.0312.0273-.082.0625-.11328.0859l-8.92969 6.64062c-.6289.45313-1.39453.64453-2.28906 1.15235-13.63281 7.70312-32.64062 8.60937-47.625 3.21875-6.92578-2.48829-14.72656-7.20704-20.117185-11.1211-6.902344-5.01562-10.363281-9.71094-14.066406-15.55859-4.6875-7.39844-13.335938-9.11719-21.671875-7.46094-5.171875 1.02734-15.128906 6.53906-17.808594 10.99219.96875-.1875 1.496094-.63672 3.800781-1.01953 1.429688-.23828 2.804688-.32422 4.292969-.40235 12.289063-.65625 19.472656 1.76563 30.019531 7.58594 1.335938.73828 16.039063 9.92188 17.257813 11.14063zm-16.984375-69.94532c-.554688 1.53125-2.042969 6.00391-2.230469 6.72266-2.808594 10.72656-2.03125 23.64062 2.964844 33.26562.410156.79297.757812 1.86329 1.203125 2.76954C86.71875 263.29297 98.5625 275.29687 113 280.26562c5.99609 2.0625 8.64844 2.15235 14.47656 2.37891-2.45703-.69531-4.69531-1.06641-7.08203-1.84375-6.17969-2.01562-11.01562-5.20312-15.86328-9.00781-8.976562-7.05469-13.523437-11.47656-18.210937-21.08985-.464844-.95703-.832032-1.59375-1.152344-2.63281-.277344-.88672-.589844-1.59765-.941406-2.6289-3.820313-11.22657-5.085938-20.65235-1.585938-32.41797.570313-1.91407 1.269531-3.65235 1.851563-5.48828l.07813-.008c.01563-.14062.03516-.27734.05469-.41406.05469-.1875.109375-.375.164063-.56641l-.07813.008c.878906-4.89844 4.074218-8.56641 7.464843-13.19922 6.75-9.22656 11.562496-11.52735 18.886716-17.84375 9.75391-8.41406 24.27734-15.96485 19.73828-29.86328-3.87109-11.85938-19.38281-14.22657-31.113277-15.98047.113281.74609-.03125.42187.863277.86328 13.23047 6.57031 18.78516 19.73437 12.15625 34.0625-2.35937 5.10156-5.84375 8.98437-9.92187 12.44922-5.847657 4.96484-8.332032 6.33594-14.464844 13.39062-2.300782 2.65235-9.582032 13.44922-9.808594 17.25zM54.21875 235.52344c3.277344 4.90234 7.769531 8.24218 13.425781 10.82422 4.863282 2.22656 5.300782.33984 4.910157-4.42188-.761719-9.39453-6.960938-15.92187-14.46875-20.34766-11.621094-6.85156-6.660157 9.76172-3.867188 13.94532"/></clipPath><clipPath id="d"><path d="M159 167h57v67h-57zm0 0"/></clipPath><clipPath id="e"><path d="M196.10156 195.59766c-.90625-.13672-3.26953-.47657-4.0625-.28907-2.51953.59766-.42969 5.07813.32031 6.52344 3.23438 6.24609 9.34766 9.16406 16.78516 10.03906 2.17578.25782 6.95703 1.12891 6.14844-2.09375-1.53906-6.1289-10.82813-12.92578-19.19141-14.17968zm-11.875 16.93359l.14844.92578c.0117.33984.0195.67188.0469.93359.21485 2.08594 1.28907 4.96485 1.30469 5.34375.16016.14844.0391-.004.19531.2461.21094.33203 1.00391 2.25 1.88282 3.60937 1.64062 2.52735 7.29297 9.38672 9.60547 9.59375 2.92187.26172 3.47265-7.26172 3.42968-9.38281-.15625-7.66797-4.29687-14.30078-9.63672-19.48437-.8789-.85547-.75-.60547-.96484-1.9336-.82422-5.09765-2.65234-10-5.12109-14.38281-4.2461-7.54297-17.89453-18.23828-25.36719-20.13281.40625.55078 4.28906 3.12109 5.92187 4.33984 10.51563 7.85547 14.76563 14.07422 19.47657 26.03516.41406 1.04687.71875 1.9375 1.125 3.0625.69531 1.91406.6914 1.16015-.26172 3.35547-1.87891 4.32812-1.39453 6.80468-1.78516 7.87109"/></clipPath><linearGradient id="c" x1="75.268524" x2="114.09011" y1="297.19708" y2="111.23086" gradientTransform="matrix(1 0 0 -1 0 419.5276)" gradientUnits="userSpaceOnUse"><stop offset="0" stop-color="#1e7d2c"/><stop offset=".160939" stop-color="#1e7d2c"/><stop offset=".5" stop-color="#1e7d2c"/><stop offset=".53125" stop-color="#1e7d2c"/><stop offset=".546875" stop-color="#1e7d2c"/><stop offset=".554688" stop-color="#1e7d2c"/><stop offset=".558594" stop-color="#1f7f2d"/><stop offset=".5625" stop-color="#20812f"/><stop offset=".566406" stop-color="#228331"/><stop offset=".570313" stop-color="#248633"/><stop offset=".574219" stop-color="#258835"/><stop offset=".578125" stop-color="#278b37"/><stop offset=".582031" stop-color="#298d39"/><stop offset=".585938" stop-color="#2a903c"/><stop offset=".589844" stop-color="#2c933e"/><stop offset=".59375" stop-color="#2e9540"/><stop offset=".597656" stop-color="#309842"/><stop offset=".601563" stop-color="#329b45"/><stop offset=".605469" stop-color="#349d47"/><stop offset=".609375" stop-color="#36a04a"/><stop offset=".613281" stop-color="#38a34c"/><stop offset=".617188" stop-color="#3aa54f"/><stop offset=".621094" stop-color="#3ca851"/><stop offset=".625" stop-color="#3eab54"/><stop offset=".628906" stop-color="#40ae56"/><stop offset=".632813" stop-color="#42b059"/><stop offset=".636719" stop-color="#44b35c"/><stop offset=".640625" stop-color="#46b65f"/><stop offset=".644531" stop-color="#49b961"/><stop offset=".648438" stop-color="#4bbc64"/><stop offset=".652344" stop-color="#4cbd66"/><stop offset=".65625" stop-color="#4dbf67"/><stop offset=".660156" stop-color="#4cbd65"/><stop offset=".664063" stop-color="#4bbc63"/><stop offset=".667969" stop-color="#4aba61"/><stop offset=".671875" stop-color="#49b95f"/><stop offset=".675781" stop-color="#48b75d"/><stop offset=".679688" stop-color="#47b65b"/><stop offset=".683594" stop-color="#46b55a"/><stop offset=".6875" stop-color="#45b358"/><stop offset=".691406" stop-color="#44b256"/><stop offset=".695313" stop-color="#43b054"/><stop offset=".699219" stop-color="#42af52"/><stop offset=".703125" stop-color="#41ae51"/><stop offset=".707031" stop-color="#40ac4f"/><stop offset=".710938" stop-color="#3fab4d"/><stop offset=".714844" stop-color="#3ea94b"/><stop offset=".71875" stop-color="#3da84a"/><stop offset=".722656" stop-color="#3ca748"/><stop offset=".726563" stop-color="#3ba546"/><stop offset=".730469" stop-color="#3ba445"/><stop offset=".734375" stop-color="#3aa343"/><stop offset=".738281" stop-color="#39a142"/><stop offset=".742188" stop-color="#38a040"/><stop offset=".746094" stop-color="#379f3e"/><stop offset=".75" stop-color="#369d3d"/><stop offset=".753906" stop-color="#359c3b"/><stop offset=".757813" stop-color="#349b3a"/><stop offset=".761719" stop-color="#339938"/><stop offset=".765625" stop-color="#339837"/><stop offset=".769531" stop-color="#329735"/><stop offset=".773438" stop-color="#319634"/><stop offset=".777344" stop-color="#329635"/><stop offset=".78125" stop-color="#329735"/><stop offset=".785156" stop-color="#359a38"/><stop offset=".789063" stop-color="#379c3a"/><stop offset=".792969" stop-color="#399f3c"/><stop offset=".796875" stop-color="#3ba23f"/><stop offset=".800781" stop-color="#3da441"/><stop offset=".804688" stop-color="#3fa744"/><stop offset=".808594" stop-color="#42aa47"/><stop offset=".8125" stop-color="#44ac49"/><stop offset=".816406" stop-color="#46af4c"/><stop offset=".820313" stop-color="#49b24f"/><stop offset=".824219" stop-color="#4bb552"/><stop offset=".828125" stop-color="#4eb755"/><stop offset=".832031" stop-color="#50ba58"/><stop offset=".835938" stop-color="#53bd5b"/><stop offset=".839844" stop-color="#55bf5e"/><stop offset=".84375" stop-color="#57c260"/><stop offset=".875" stop-color="#57c260"/><stop offset="1" stop-color="#57c260"/></linearGradient><linearGradient id="f" x1="217.15755" x2="157.3129" y1="250.64377" y2="188.42682" gradientTransform="matrix(1 0 0 -1 0 419.5276)" gradientUnits="userSpaceOnUse"><stop offset="0" stop-color="#1e7d2c"/><stop offset=".452501" stop-color="#1e7d2c"/><stop offset=".5" stop-color="#1e7d2c"/><stop offset=".547499" stop-color="#1e7d2c"/><stop offset=".5625" stop-color="#1e7d2c"/><stop offset=".59375" stop-color="#1e7d2c"/><stop offset=".609375" stop-color="#1e7d2c"/><stop offset=".617188" stop-color="#1e7d2c"/><stop offset=".621094" stop-color="#20802e"/><stop offset=".625" stop-color="#228230"/><stop offset=".628906" stop-color="#248633"/><stop offset=".632813" stop-color="#268936"/><stop offset=".636719" stop-color="#288c38"/><stop offset=".640625" stop-color="#2a903b"/><stop offset=".644531" stop-color="#2c933e"/><stop offset=".648438" stop-color="#2f9641"/><stop offset=".652344" stop-color="#319a44"/><stop offset=".65625" stop-color="#349d47"/><stop offset=".660156" stop-color="#36a14a"/><stop offset=".664063" stop-color="#39a44d"/><stop offset=".667969" stop-color="#3ba851"/><stop offset=".671875" stop-color="#3eab54"/><stop offset=".675781" stop-color="#41af57"/><stop offset=".679688" stop-color="#43b25b"/><stop offset=".683594" stop-color="#46b65e"/><stop offset=".6875" stop-color="#49b962"/><stop offset=".691406" stop-color="#4bbc65"/><stop offset=".695313" stop-color="#4ebf67"/><stop offset=".699219" stop-color="#4cbd65"/><stop offset=".703125" stop-color="#4bbb62"/><stop offset=".707031" stop-color="#4ab960"/><stop offset=".710938" stop-color="#48b85e"/><stop offset=".714844" stop-color="#47b65b"/><stop offset=".71875" stop-color="#46b459"/><stop offset=".722656" stop-color="#44b256"/><stop offset=".726563" stop-color="#43b054"/><stop offset=".730469" stop-color="#42ae52"/><stop offset=".734375" stop-color="#41ad50"/><stop offset=".738281" stop-color="#3fab4d"/><stop offset=".742188" stop-color="#3ea94b"/><stop offset=".746094" stop-color="#3da749"/><stop offset=".75" stop-color="#3ca647"/><stop offset=".753906" stop-color="#3ba445"/><stop offset=".757813" stop-color="#39a243"/><stop offset=".761719" stop-color="#38a141"/><stop offset=".765625" stop-color="#379f3f"/><stop offset=".769531" stop-color="#369d3d"/><stop offset=".773438" stop-color="#359b3b"/><stop offset=".777344" stop-color="#349a39"/><stop offset=".78125" stop-color="#339837"/><stop offset=".785156" stop-color="#329735"/><stop offset=".789063" stop-color="#309533"/><stop offset=".792969" stop-color="#339735"/><stop offset=".796875" stop-color="#359a38"/><stop offset=".800781" stop-color="#379d3b"/><stop offset=".804688" stop-color="#3aa13e"/><stop offset=".808594" stop-color="#3da441"/><stop offset=".8125" stop-color="#40a745"/><stop offset=".816406" stop-color="#43ab48"/><stop offset=".820313" stop-color="#46ae4c"/><stop offset=".824219" stop-color="#49b24f"/><stop offset=".828125" stop-color="#4cb553"/><stop offset=".832031" stop-color="#4fb957"/><stop offset=".835938" stop-color="#52bd5b"/><stop offset=".839844" stop-color="#55bf5d"/><stop offset=".84375" stop-color="#57c260"/><stop offset=".875" stop-color="#57c260"/><stop offset="1" stop-color="#57c260"/></linearGradient></defs><g clip-path="url(#a)" transform="matrix(1.37257 0 0 1.37257 -55.074251 -177.97798)"><g clip-path="url(#b)" clip-rule="evenodd"><path fill="url(#c)" d="M40.125 292.50391V129.66797h149.61719v162.83594zm0 0"/></g></g><path fill="#4c4a3d" d="M97.371815 143.54584c0 2.02668-.380681 3.84424-1.12593 5.43664-.755997 1.58167-1.801494 2.93816-3.131168 4.05337-1.329675 1.09912-2.900633 1.93553-4.702127 2.4985-1.817566.56296-3.753105.8364-5.844129.8364-1.458352 0-2.809466-.12325-4.048002-.36459-1.254609-.252-2.364453-.56297-3.340264-.91682-.975813-.35924-1.790776-.73455-2.455606-1.11521-.654123-.39141-1.125944-.71309-1.377933-.98654-.262723-.26272-.445014-.60586-.573692-1.01871-.12861-.4182-.18229-.96508-.18229-1.65672 0-.49326.02141-.90612.06973-1.2278.04282-.3217.11255-.58441.193023-.77744.09114-.2091.20373-.34315.343143-.42356.139397-.0804.289516-.1179.47182-.1179.310969 0 .755982.19837 1.329673.57369.562959.38066 1.297502.79352 2.203602 1.23852.895394.43966 1.973065.86322 3.249127 1.25462 1.259975.38604 2.729048.58441 4.380424.58441 1.265328 0 2.412712-.17156 3.458223-.50399 1.040145-.33242 1.93554-.80425 2.680789-1.42618.761348-.60586 1.33504-1.36185 1.737161-2.25722.396754-.8954.605865-1.91946.605865-3.05612 0-1.2278-.273443-2.28402-.836415-3.1526-.562972-.87394-1.297501-1.64065-2.214335-2.30548-.93292-.65412-1.973065-1.26533-3.147254-1.81759-1.179543-.54687-2.385906-1.09912-3.613708-1.67281-1.227803-.57369-2.434166-1.20636-3.592269-1.90337-1.168823-.69164-2.214335-1.5066-3.131169-2.44489-.916833-.94363-1.662096-2.04276-2.225054-3.31881-.573691-1.25997-.863221-2.7773-.863221-4.54127 0-1.82831.332422-3.44214.986532-4.86832.664845-1.41011 1.587031-2.60573 2.755854-3.56547 1.179556-.96507 2.57893-1.69962 4.198133-2.2036 1.629924-.50936 3.372438-.76135 5.254351-.76135.965094 0 1.930172.0804 2.905985.25199.975813.17693 1.892646.39139 2.755854.68092.857854.27345 1.629923.59515 2.305487.93829.664831.34315 1.109844.63266 1.318954.8364.219817.21984.353862.38067.423561.50935.06973.12326.117904.28418.160851.46646.04818.19838.08044.42893.101846.70238.02676.26271.03748.60584.03748 1.0455 0 .40211-.01098.75599-.04832 1.07768-.03212.31096-.09114.57369-.160836.79352-.05367.20373-.160852.36458-.273444.46645-.128609.10722-.262722.15013-.423574.15013-.251989 0-.632657-.16085-1.158103-.47182-.530785-.3217-1.174176-.66484-1.940892-1.06696-.755983-.38604-1.66745-.74526-2.707594-1.06695-1.034792-.33243-2.203615-.49328-3.51185-.49328-1.206349 0-2.262595.16085-3.157974.48256-.895381.33241-1.640644.75598-2.225056 1.2975-.573691.54151-1.007985 1.16882-1.308234 1.90337-.284163.74526-.43428 1.52804-.43428 2.35373 0 1.20636.273428 2.25187.836401 3.12045.562972.87394 1.308235 1.64064 2.235788 2.31621.94364.68091 1.999871 1.28678 3.190147 1.84974 1.184911.56297 2.401992 1.12594 3.640514 1.69963 1.227804.57368 2.444885 1.19027 3.624428 1.88191 1.195643.67556 2.251875 1.49053 3.190147 2.41808.927555.93292 1.678184 2.02131 2.251875 3.29737.573693 1.25997.857855 2.7505.857855 4.48765zm35.697465-4.12305c0 2.46631-.31634 4.73963-.97045 6.81992-.64339 2.06421-1.6192 3.85498-2.90598 5.35623-1.28678 1.50125-2.90062 2.67543-4.8308 3.51183-1.94089.83642-4.18739 1.25998-6.73416 1.25998-2.49314 0-4.65921-.36459-6.50897-1.10984-1.84438-.73454-3.38315-1.81222-4.61096-3.22768-1.2278-1.4101-2.15-3.13116-2.75585-5.1364-.60587-2.02133-.90611-4.30535-.90611-6.86283 0-2.46634.32168-4.73965.95435-6.80922.6434-2.07494 1.60312-3.8657 2.8899-5.36695 1.28679-1.5066 2.8899-2.6647 4.82008-3.50113 1.9248-.82568 4.17668-1.23852 6.74487-1.23852 2.49315 0 4.65922.3646 6.50898 1.10985 1.84975.73454 3.38315 1.81758 4.61095 3.22769 1.22782 1.41009 2.16072 3.12043 2.77731 5.14175.61122 2.01596.91684 4.28927.91684 6.82532zm-5.7798.35922c0-1.646-.15012-3.19015-.46109-4.64849-.30025-1.45836-.80424-2.73442-1.50124-3.83355-.69165-1.10449-1.64066-1.97306-2.83629-2.60574-1.17956-.64338-2.67543-.96507-4.45013-.96507-1.64063 0-3.05609.28951-4.23565.87393-1.17955.58442-2.14463 1.4101-2.91671 2.47706-.7667 1.06695-1.32967 2.33228-1.69425 3.79064-.38067 1.45298-.56297 3.05075-.56297 4.77181 0 1.6621.15013 3.22232.45573 4.68067.30024 1.45834.80424 2.72904 1.51733 3.82281.71309 1.07767 1.66209 1.95161 2.847 2.57892 1.19028.64339 2.68081.96509 4.46085.96509 1.6192 0 3.01857-.28417 4.21421-.86859 1.19028-.58976 2.16609-1.40473 2.93816-2.46095.76669-1.05088 1.32966-2.31621 1.68353-3.77456.35922-1.45299.54152-3.06147.54152-4.80398zm27.39235 15.97215l-4.0319 11.1414c-.13397.35385-.48255.63266-1.02943.82568-.54153.19302-1.37793.28952-2.50386.28952-.58442 0-1.05624-.0268-1.4101-.0804-.35387-.059-.63267-.16085-.82568-.28953-.18229-.1394-.28953-.32168-.31097-.54152-.0214-.22518.0321-.49327.16084-.80959l4.17668-10.53554c-.20374-.0911-.40213-.24127-.57369-.43964-.1823-.20375-.31097-.41284-.36996-.63803l-10.79287-28.9204c-.18765-.47182-.26808-.84714-.26808-1.10986 0-.2788.0804-.48253.26808-.64338.18229-.16086.46646-.26808.86857-.3217.40212-.059.94365-.0804 1.61921-.0804.66485 0 1.19564.011 1.58167.0428.38067.0375.68092.10721.90611.19837.21982.0804.38067.21447.48253.37532.10721.17157.20911.40212.3217.69165l8.64288 24.28262h.10186l8.33193-24.4113c.1394-.43429.30025-.70774.49325-.82568.1823-.12326.47182-.21984.84715-.27344.39138-.059.94363-.0804 1.65672-.0804.62731 0 1.14738.0214 1.5495.0804.39676.0537.69701.16083.8793.32168.19838.16085.28953.3646.28953.6434 0 .26272-.0697.60586-.19837 1.00798zm39.15034-.80422c0 .26271-.0911.47182-.2627.60584-.18231.13942-.42358.23056-.74527.30025-.31098.0697-.77206.10186-1.37793.10186-.57369 0-1.04551-.0321-1.38865-.10186-.34314-.0697-.59513-.16083-.75598-.30025-.16085-.13409-.24127-.3324-.24127-.60584v-3.0293c-1.31895 1.41009-2.78803 2.51458-4.41796 3.29201-1.62991.77206-3.35099 1.1581-5.16321 1.1581-1.59775 0-3.04538-.20373-4.3268-.61659-1.28678-.41283-2.3859-1.02406-3.29201-1.80148-.91146-.7828-1.61921-1.75861-2.1232-2.89526-.50935-1.14738-.76134-2.43952-.76134-3.89787 0-1.71035.3485-3.19015 1.04552-4.44476.69163-1.25996 1.68888-2.30547 2.99712-3.13117 1.2975-.82568 2.8899-1.45835 4.77181-1.8712 1.88193-.41284 4.00511-.61657 6.35885-.61657h4.17668v-2.36446c0-1.15811-.12861-2.19289-.36996-3.09899-.25198-.8954-.64338-1.64066-1.19028-2.2358-.55223-.60049-1.26532-1.0455-2.1339-1.34575-.87394-.31097-1.95162-.45574-3.22768-.45574-1.36184 0-2.58964.16086-3.67269.49326-1.0884.33242-2.04277.68629-2.85772 1.08841-.81496.40212-1.50124.75598-2.05348 1.0884-.53617.33242-.94901.49327-1.21709.49327-.18229 0-.34314-.0428-.46646-.13409-.1394-.0804-.25199-.21984-.35922-.40212-.10186-.17157-.17157-.40213-.21447-.68093-.0483-.28416-.0697-.5844-.0697-.92754 0-.55225.0321-.99727.11255-1.31896.0804-.3217.2788-.63268.57369-.91684.30025-.28953.82568-.63266 1.56022-1.03479.73454-.39139 1.59776-.75598 2.56284-1.08839.949-.3217 2.00523-.6005 3.15262-.81496 1.13665-.21983 2.29475-.3217 3.45285-.3217 2.17145 0 4.01583.24127 5.54388.73454 1.52807.49326 2.75587 1.2278 3.69415 2.1768.94363.95437 1.6192 2.13928 2.04276 3.54937.42358 1.41011.64339 3.06147.64339 4.94339zm-5.50634-13.85971h-4.73964c-1.51734 0-2.83629.12326-3.96222.38603-1.10985.252-2.03741.6434-2.78802 1.14739-.73455.50935-1.27071 1.10449-1.62993 1.81221-.34315.71309-.51472 1.52804-.51472 2.44488 0 1.57631.49327 2.82555 1.49053 3.75312 1.00262.9329 2.39126 1.39937 4.19276 1.39937 1.44227 0 2.79876-.3646 4.03728-1.10985 1.23852-.73453 2.54675-1.87119 3.91396-3.39925zm0 0"/><g clip-path="url(#d)" transform="matrix(1.37257 0 0 1.37257 -55.074251 -177.97798)"><g clip-path="url(#e)" clip-rule="evenodd"><path fill="url(#f)" d="M159.75 233.44531v-65.57812h56.35156v65.57812zm0 0"/></g></g><g stroke-width="1.14116" aria-label="SOYA ENDÜSTRİYEL" font-family="Roboto" font-size="45.6462" font-weight="400" style="line-height:1.25;-inkscape-font-specification:Roboto"><path d="M291.37910681 86.92131517q-5.96813794-2.02765064-8.6984912-4.96917217-2.70619968-2.97007975-2.70619968-7.31096584 0-4.91205444 3.3102563-8.11060256 3.33442072-3.22710506 8.65016234-3.22710506 3.62437224 0 6.45138323 1.65638987 2.8511646 1.65639115 4.39756905 4.56935445 1.57055806 2.91296203 1.57055806 6.36853545h-4.66335614q0-3.76971646-2.02964975-5.91160128-2.02963892-2.17044177-5.72650445-2.17044177-3.43106762 0-5.36405965 1.79918228-1.90883843 1.77062405-1.90883843 4.94061394 0 2.54170254 1.8121807 4.31232659 1.83635598 1.74206582 6.2097606 3.19854812 4.39756904 1.456481 6.86213523 3.22710506 2.48873062 1.7420671 3.67269026 4.08386078 1.20812408 2.34179368 1.20812408 5.51178229 0 5.05484684-3.33442072 8.11060255-3.33440989 3.02719621-8.91593859 3.02719621-3.62437224 0-6.76549918-1.62783164-3.1411161-1.65639115-4.85664991-4.51223673-1.69136938-2.85584557-1.69136938-6.4827709h4.66335613q0 3.76971646 2.34375486 5.96871773 2.3679193 2.17044304 6.30640748 2.17044304 3.67269027 0 5.62984673-1.77062405 1.95715645-1.77062405 1.95715645-4.82637976 0-3.05575443-1.8121807-4.71214558-1.8121807-1.68494937-6.57218372-3.31278102zM337.45691868 86.00744428q0 6.11151014-1.73969824 10.68086332-1.73969824 4.54079494-4.92914321 6.93970635-3.18944497 2.39891013-7.44203826 2.39891013-4.1559464 0-7.36954497-2.39891013-3.2136094-2.42746963-5.0016365-6.88258862-1.76386268-4.4836785-1.8121807-10.36672156v-2.99863798q0-5.99727596 1.76386267-10.59518864 1.76385183-4.5979114 4.97746123-7.02538103 3.23777384-2.45602658 7.3937094-2.45602658 4.2284397 0 7.4420491 2.42746835 3.237763 2.39891141 4.97746124 6.99682281 1.73969824 4.56935317 1.73969824 10.65230509zm-4.61502726-2.68449494q0-7.3966418-2.51289505-11.3377089-2.51289505-3.96962532-7.03128627-3.96962532-4.3975582 0-6.9346177 3.96962532-2.51289504 3.9410671-2.58538834 10.96644813v3.05575571q0 7.16817344 2.53705948 11.28059117 2.56122392 4.0838595 7.03127543 4.0838595 4.49421594 0 6.95879296-3.85539114 2.46456619-3.88395064 2.53705949-11.10924053zM354.08069345 84.75087213l9.1817365-20.87623424h5.26741275l-12.12955882 26.07387349v15.50724307h-4.6391917V89.94851138l-12.12955883-26.0738735h5.31574162zM390.32438333 94.6035405h-14.73910077l-3.3102563 10.85221395h-4.78416745l13.4343298-41.58111656h4.05929951l13.4584834 41.58111656h-4.76000303zm-13.33767206-4.51223672h11.96041863l-5.99229153-19.44831017zM300.89911285 159.34557238h-15.2465105v14.73616203h17.71107669v4.4836721h-22.35027922v-41.58111273h22.10865657v4.51223672h-17.46945403v13.36535698h15.2465105zM336.17631214 178.5654065h-4.66335613l-17.71108752-32.04258738v32.04258738h-4.66335613v-41.58111272h4.66335613l17.75940555 32.18538235v-32.18538235h4.6150381zM344.41571165 178.5654065v-41.58111272h9.93076888q4.59086283 0 8.11858818 2.39891141 3.52771451 2.39891013 5.43655294 6.8254709 1.93300287 4.42656076 1.95715646 10.16681782v2.65593543q0 5.88303538-1.93299202 10.3095987-1.90883844 4.42656333-5.48488181 6.79691652-3.55187894 2.37035318-8.28772837 2.42746194zm4.6391917-37.068876v32.58520391h4.88081434q5.36407049 0 8.3360464-3.94106838 2.99615119-3.94106837 2.99615119-11.22347984v-2.42746194q0-7.08249877-2.827011-10.99500892-2.80284657-3.94106838-7.97361243-3.99818483zM401.65659176 136.98429378v28.27287476q-.02417528 5.88304819-3.14112695 9.62420386-3.09278724 3.74115568-8.40852885 4.19808984l-1.23228852.0571472q-5.77483332 0-9.20590093-3.6840469-3.43106762-3.68403411-3.47939649-10.1382468v-28.33002196h4.59087368v28.15864442q0 4.51223288 2.1021322 7.0253772 2.10213222 2.48458351 5.99229154 2.48458351 3.93847735 0 6.01645597-2.48458352 2.10213222-2.48458352 2.10213222-6.9968164v-28.1872052zm-20.5139341-6.42565318q0-1.28513038.6523855-2.14188482.67654991-.88531138 1.98132088-.88531138 1.30477097 0 1.9813209.88531138.67654991.85675444.67654991 2.14188482t-.67654992 2.14188482q-.67654992.85675316-1.98132089.85675316-1.30477097 0-1.98132089-.85675316-.65238548-.85675444-.65238548-2.14188482zm10.3898606.05712158q0-1.28513038.65238548-2.17044177.67654992-.88531266 1.98132089-.88531266 1.30477097 0 1.98132089.88531266.67654992.88531139.67654992 2.17044177 0 1.28513166-.67654992 2.14188482-.67654992.85675444-1.9813209.85675444-1.30477096 0-1.98132088-.85675444-.65238549-.85675316-.65238549-2.14188482zM419.34351485 160.03096722q-5.9681271-2.02764935-8.69849121-4.96916704-2.70618884-2.97007847-2.70618884-7.31096713 0-4.91205443 3.3102563-8.11060255 3.33442072-3.22710506 8.65016234-3.22710506 3.6243614 0 6.4513724 1.65638986 2.85117543 1.65639115 4.39756905 4.56935318 1.57055805 2.9129633 1.57055805 6.36853673h-4.66335613q0-3.76971647-2.02963892-5.91160129-2.02964975-2.17044304-5.72650445-2.17044304-3.43107846 0-5.36407048 1.79918355-1.90883843 1.77062405-1.90883843 4.94061395 0 2.5417051 1.81219154 4.31233299 1.83634513 1.7420543 6.20974975 3.19853915 4.39756905 1.45648485 6.86213523 3.22711275 2.48874146 1.7420671 3.6727011 4.0838595 1.20812409 2.3417924 1.20812409 5.51178357 0 5.0548366-3.33442073 8.11059743-3.33442072 3.02720005-8.91594942 3.02720005-3.62437224 0-6.76548835-1.62783677-3.14112694-1.65638474-4.85666075-4.51223288-1.69136937-2.85584814-1.69136937-6.48277347h4.66335613q0 3.76971646 2.34375486 5.96871773 2.3679193 2.17044048 6.30640748 2.17044048 3.67269026 0 5.62985756-1.77062789 1.95715646-1.77061508 1.95715646-4.82637592 0-3.05574802-1.81219154-4.71214558-1.8121807-1.68494553-6.57218372-3.3127823zM462.66680902 141.4965305h-11.30803315v37.068876h-4.61502727v-37.068876h-11.28386872v-4.51223672h27.20692914zM480.8369774 161.74447354h-8.26356393v16.82093296h-4.66335613v-41.58111272h11.64631353q5.94396266 0 9.13340763 3.19854812 3.2136094 3.19854684 3.2136094 9.31005313 0 3.88395962-1.7880271 6.76835573-1.76385183 2.88440892-4.92914321 4.31233299l8.26356394 17.64913174v.34269101h-4.97746124zm-8.26356393-4.48367209h7.12793315q3.45523205 0 5.48487097-2.11333172 2.05381419-2.1133189 2.05381419-5.6545747 0-3.8553873-1.95715646-5.91159744-1.93300286-2.05620886-5.60569313-2.08476709h-7.10376872zM503.35639682 178.5654065h-4.6391917v-41.58111272h4.6391917zm-4.97746124-48.23523298q0-1.28513166.65238548-2.17044305.67654992-.88531266 1.9813209-.88531266 1.30477096 0 1.98132088.88531266.67654992.88531139.67654992 2.17044305 0 1.28513038-.67654992 2.14188354-.67654992.85675444-1.98132089.85675444-1.30477097 0-1.98132089-.85675444-.65238548-.85675316-.65238548-2.14188354zM521.86484558 157.86052674l9.1817365-20.87623296h5.26741276l-12.12955883 26.0738735v15.50723922h-4.6391917v-15.50723923l-12.12955882-26.07387349h5.31574161zM560.7905707 159.34557238h-15.2465105v14.73616203h17.71108753v4.4836721H540.9048685v-41.58111273h22.10865657v4.51223672h-17.46946487v13.36535698h15.2465105zM573.6933155 174.08173441h16.67210363v4.4836721h-21.33544892v-41.58111273h4.66334529z" style="-inkscape-font-specification:Roboto"/></g><text x="421.12802" y="-1.0287915" font-family="sans-serif" font-size="40" font-weight="400" style="line-height:1.25"/></svg>
