<svg xmlns="http://www.w3.org/2000/svg" fill="none" viewBox="0 0 18 18"><path fill="#000" d="M17.9985 14.5038c-.0251-.6962-.3151-1.346-.8166-1.8296-.982-.9468-1.8047-1.4935-2.5892-1.7201-1.0809-.3124-2.0821-.0284-2.9757.8443-.0013.0013-.0026.0026-.004.0039l-.9506.9436c-.5941-.3349-1.74933-1.0703-2.99745-2.3184l-.09253-.0924C6.32409 9.08677 5.5888 7.93133 5.25422 7.33789l.94359-.95066c.00134-.00134.00268-.00267.00401-.00404.87261-.89346 1.15668-1.89464.84431-2.97566-.22672-.78444-.77329-1.60717-1.72019-2.58912C4.8424.316977 4.19268.0269379 3.49641.0018363 2.79972-.0233004 2.13119.219207 1.6127.684606l-.02018.01814c-.00935.008403-.01849.017086-.02742.025981C.532947 1.76088-.00810763 3.20584.00036503 4.90743.0148142 7.79805 1.60349 11.1037 4.25002 13.7502c.49904.4991 1.06622.9929 1.68574 1.468.30814.2362.74949.178.98578-.1302.23632-.3082.17803-.7495-.13015-.9858-.57076-.4377-1.09125-.8906-1.54701-1.3463-2.39049-2.3905-3.82518-5.32706-3.8378-7.85546-.0065-1.31049.3877-2.4043 1.14015-3.16459l.00538-.00485c.51107-.45876 1.28482-.43084 1.76161.06356 1.82036 1.88782 1.68855 2.77906.88418 3.6039L3.89452 6.71162c-.2044.20594-.26132.5163-.1433.78138.03308.07432.83355 1.84314 2.82709 3.8367l.09257.0924c1.99329 1.9933 3.76212 2.7938 3.83642 2.8268.265.1181.5755.0612.7814-.1432l1.3132-1.3034c.8249-.8044 1.7162-.9362 3.6039.8842.4944.4767.5223 1.2505.0636 1.7615l-.0049.0055c-.7541.7463-1.8363 1.1402-3.1325 1.1402h-.0321c-1.0361-.0052-2.2359-.2892-3.46954-.8214-.35648-.1538-.7703.0106-.92408.3672-.15381.3566.01055.7703.36714.9241 1.42598.6151 2.77828.9301 4.01948.9363.0132 0 .0263.0001.0394.0001 1.6845 0 3.1151-.5407 4.1393-1.5648.0089-.009.0176-.0181.026-.0275l.0182-.0202c.4654-.5185.7078-1.1874.6827-1.8837z"/></svg>
