<svg xmlns="http://www.w3.org/2000/svg" fill="none" viewBox="0 0 42 42"><circle cx="21" cy="21" r="21" fill="#4A4A4A"/><g clip-path="url(#clip0)"><path fill="#fff" d="M27.1209 24.8086c1.288-1.7589 2.0584-3.9193 2.0584-6.2614 0-5.8629-4.7702-10.63314-10.6331-10.63314-5.8629 0-10.63311 4.77024-10.63311 10.63314 0 5.8629 4.77021 10.6331 10.63311 10.6331 2.3421 0 4.5027-.7705 6.2616-2.0585l6.966 6.966 2.3132-2.3132-6.9661-6.966zm-8.5747 1.1c-4.0593 0-7.3614-3.3021-7.3614-7.3614s3.3021-7.3614 7.3614-7.3614 7.3614 3.3021 7.3614 7.3614-3.3021 7.3614-7.3614 7.3614z"/></g><defs><clipPath id="clip0"><path fill="#fff" d="M7.91309 7.91309h26.1739v26.1739H7.91309z"/></clipPath></defs></svg>
