<svg xmlns="http://www.w3.org/2000/svg" width="793.7008" height="559.3701" viewBox="0 0 595.2756 419.5276"><defs><clipPath id="a"><path d="M103 32h332v356H103zm0 0"/></clipPath><clipPath id="b"><path d="M226.1836 360.082c2.7031 1.0938 7.8633 4.4532 11.289 6.086 1.6797.8007 2.9766.9922 4.0235 2.2968 1.5742.0899 11.875 4.8633 14.5586 5.918 34.2812 13.5 75.332 18.6445 108.832 3.8203 3.836-1.6992 11.668-5.582 15.1328-7.8594l5.4805-3.6484c1.1875-.668 1.754-.871 2.6758-1.582l5.2265-3.9844c2.918-1.8047 2.1836-1.7656 3.8594-3.1367l10.957-9.8594 8.9493-10.5273c8.9336-12.3868 15.7422-26.086 17.7695-42.457-.7266.91-.254.164-.7813 1.5507-.203.5352-.3593 1.1524-.5703 1.8672-5.3593 17.9258-22.543 38.418-36.2968 49.879-.0704.0546-.1758.1327-.2461.1913l-19.7813 14.707c-1.3945 1.0079-3.0898 1.4297-5.0703 2.5508-30.1914 17.0664-72.2969 19.0664-105.4883 7.129-15.336-5.5118-32.621-15.957-44.5586-24.6329-15.2851-11.1094-22.9492-21.5117-31.1562-34.4648-10.3867-16.3828-29.5352-20.1875-48.004-16.5195-11.453 2.2773-33.5077 14.4843-39.4413 24.3476 2.1484-.414 3.3125-1.4101 8.4218-2.2617 3.1641-.5274 6.211-.711 9.5079-.8867 27.2148-1.457 43.1289 3.9062 66.4882 16.8007 2.957 1.6329 35.5235 21.9727 38.2227 24.6758zm-37.6172-154.9257c-1.2266 3.3906-4.5273 13.3007-4.9453 14.8867-6.211 23.7578-4.4883 52.371 6.5703 73.6836.914 1.7578 1.6836 4.125 2.664 6.1328 13.8907 28.4687 40.1212 55.0586 72.1055 66.0625 13.2774 4.5664 19.1524 4.7695 32.0625 5.2695-5.4453-1.539-10.3984-2.3633-15.6836-4.086-13.6914-4.4648-24.3984-11.5195-35.1367-19.953-19.8828-15.6212-29.961-25.4141-40.3398-46.711-1.0313-2.1172-1.8399-3.5273-2.5547-5.832-.6133-1.961-1.3086-3.539-2.082-5.8164-8.4649-24.875-11.2657-45.75-3.5118-71.8086 1.2618-4.2344 2.8086-8.086 4.0977-12.1563l.1758-.0156c.0351-.3125.0742-.6172.1172-.9219.125-.414.246-.832.3672-1.2539l-.172.0196c1.9415-10.8477 9.0196-18.9727 16.5274-29.2344 14.9531-20.4375 25.6172-25.5313 41.8399-39.5274 21.6054-18.6367 53.7656-35.3593 43.7148-66.1406-8.5742-26.2656-42.9297-31.5117-68.914-35.4023.25 1.6562-.0665.9375 1.9101 1.9218 29.3086 14.543 41.6094 43.7032 26.9297 75.4453-5.2227 11.293-12.9414 19.8946-21.9805 27.5704-12.9492 10.996-18.4531 14.0312-32.0312 29.6601-5.1055 5.875-21.2266 29.7852-21.7305 38.207zm-53.8047 61.664c7.254 10.8555 17.207 18.2578 29.7305 23.9805 10.7773 4.9219 11.7422.746 10.8828-9.8008-1.6953-20.8086-15.418-35.2656-32.0547-45.0703-25.7344-15.1719-14.75 21.625-8.5586 30.8906"/></clipPath><clipPath id="d"><path d="M368 116h124v146H368zm0 0"/></clipPath><clipPath id="e"><path d="M449.0234 178.3828c-2.0039-.3008-7.2421-1.0508-8.996-.6367-5.582 1.3281-.957 11.25.703 14.4531 7.168 13.8281 20.711 20.289 37.1837 22.2305 4.8203.5703 15.4062 2.5039 13.6132-4.6367-3.4023-13.5743-23.9804-28.629-42.5039-31.4102zm-26.3046 37.5078l.332 2.0586c.0234.75.043 1.4844.1015 2.0625.4805 4.6211 2.8594 11 2.8907 11.836.3554.328.086-.0079.4336.543.4687.7382 2.2187 4.9882 4.1718 7.996 3.6368 5.6016 16.1563 20.793 21.2774 21.25 6.4687.582 7.6875-16.082 7.5937-20.7851-.3476-16.9766-9.5195-31.672-21.3476-43.1563-1.9492-1.8945-1.6602-1.3398-2.1367-4.2812-1.8282-11.2891-5.875-22.1485-11.336-31.8516-9.4101-16.7148-39.6406-40.3984-56.1914-44.5977.8985 1.2188 9.4961 6.9102 13.1094 9.6133 23.2969 17.3985 32.7148 31.1719 43.1484 57.664.914 2.3165 1.586 4.297 2.4883 6.7813 1.539 4.2422 1.5313 2.5743-.5781 7.4336-4.168 9.5899-3.086 15.0743-3.957 17.4336"/></clipPath><linearGradient id="c" gradientUnits="userSpaceOnUse" x1="181.3943" y1="403.423" x2="267.3594" y2="-8.4756" gradientTransform="matrix(1 0 0 -1 0 419.5276)"><stop offset="0" stop-color="#1e7d2c"/><stop offset=".1609" stop-color="#1e7d2c"/><stop offset=".5" stop-color="#1e7d2c"/><stop offset=".5313" stop-color="#1e7d2c"/><stop offset=".5469" stop-color="#1e7d2c"/><stop offset=".5547" stop-color="#1e7d2c"/><stop offset=".5586" stop-color="#1f7f2d"/><stop offset=".5625" stop-color="#20812f"/><stop offset=".5664" stop-color="#228331"/><stop offset=".5703" stop-color="#248633"/><stop offset=".5742" stop-color="#258835"/><stop offset=".5781" stop-color="#278b37"/><stop offset=".582" stop-color="#298d39"/><stop offset=".5859" stop-color="#2a903c"/><stop offset=".5898" stop-color="#2c933e"/><stop offset=".5938" stop-color="#2e9540"/><stop offset=".5977" stop-color="#309842"/><stop offset=".6016" stop-color="#329b45"/><stop offset=".6055" stop-color="#349d47"/><stop offset=".6094" stop-color="#36a04a"/><stop offset=".6133" stop-color="#38a34c"/><stop offset=".6172" stop-color="#3aa54f"/><stop offset=".6211" stop-color="#3ca851"/><stop offset=".625" stop-color="#3eab54"/><stop offset=".6289" stop-color="#40ae56"/><stop offset=".6328" stop-color="#42b059"/><stop offset=".6367" stop-color="#44b35c"/><stop offset=".6406" stop-color="#46b65f"/><stop offset=".6445" stop-color="#49b961"/><stop offset=".6484" stop-color="#4bbc64"/><stop offset=".6523" stop-color="#4cbd66"/><stop offset=".6563" stop-color="#4dbf67"/><stop offset=".6602" stop-color="#4cbd65"/><stop offset=".6641" stop-color="#4bbc63"/><stop offset=".668" stop-color="#4aba61"/><stop offset=".6719" stop-color="#49b95f"/><stop offset=".6758" stop-color="#48b75d"/><stop offset=".6797" stop-color="#47b65c"/><stop offset=".6836" stop-color="#46b55a"/><stop offset=".6875" stop-color="#45b358"/><stop offset=".6914" stop-color="#44b256"/><stop offset=".6953" stop-color="#43b054"/><stop offset=".6992" stop-color="#42af52"/><stop offset=".7031" stop-color="#41ae51"/><stop offset=".707" stop-color="#40ac4f"/><stop offset=".7109" stop-color="#3fab4d"/><stop offset=".7148" stop-color="#3ea94b"/><stop offset=".7188" stop-color="#3da84a"/><stop offset=".7227" stop-color="#3ca748"/><stop offset=".7266" stop-color="#3ba546"/><stop offset=".7305" stop-color="#3ba445"/><stop offset=".7344" stop-color="#3aa343"/><stop offset=".7383" stop-color="#39a142"/><stop offset=".7422" stop-color="#38a040"/><stop offset=".7461" stop-color="#379f3e"/><stop offset=".75" stop-color="#369d3d"/><stop offset=".7539" stop-color="#359c3b"/><stop offset=".7578" stop-color="#349b3a"/><stop offset=".7617" stop-color="#339938"/><stop offset=".7656" stop-color="#339837"/><stop offset=".7695" stop-color="#329735"/><stop offset=".7734" stop-color="#319634"/><stop offset=".7773" stop-color="#329635"/><stop offset=".7813" stop-color="#329735"/><stop offset=".7852" stop-color="#359a38"/><stop offset=".7891" stop-color="#379c3a"/><stop offset=".793" stop-color="#399f3c"/><stop offset=".7969" stop-color="#3ba23f"/><stop offset=".8008" stop-color="#3da441"/><stop offset=".8047" stop-color="#3fa744"/><stop offset=".8086" stop-color="#42aa47"/><stop offset=".8125" stop-color="#44ac49"/><stop offset=".8164" stop-color="#46af4c"/><stop offset=".8203" stop-color="#49b24f"/><stop offset=".8242" stop-color="#4bb552"/><stop offset=".8281" stop-color="#4eb755"/><stop offset=".832" stop-color="#50ba58"/><stop offset=".8359" stop-color="#53bd5b"/><stop offset=".8398" stop-color="#55bf5e"/><stop offset=".8438" stop-color="#57c260"/><stop offset=".875" stop-color="#57c260"/><stop offset="1" stop-color="#57c260"/></linearGradient><linearGradient id="f" gradientUnits="userSpaceOnUse" x1="495.6488" y1="300.3234" x2="363.1089" y2="162.5016" gradientTransform="matrix(1 0 0 -1 0 419.5276)"><stop offset="0" stop-color="#1e7d2c"/><stop offset=".4525" stop-color="#1e7d2c"/><stop offset=".5" stop-color="#1e7d2c"/><stop offset=".5475" stop-color="#1e7d2c"/><stop offset=".5625" stop-color="#1e7d2c"/><stop offset=".5938" stop-color="#1e7d2c"/><stop offset=".6094" stop-color="#1e7d2c"/><stop offset=".6172" stop-color="#1e7d2c"/><stop offset=".6211" stop-color="#20802e"/><stop offset=".625" stop-color="#228230"/><stop offset=".6289" stop-color="#248633"/><stop offset=".6328" stop-color="#268936"/><stop offset=".6367" stop-color="#288c38"/><stop offset=".6406" stop-color="#2a903b"/><stop offset=".6445" stop-color="#2c933e"/><stop offset=".6484" stop-color="#2f9641"/><stop offset=".6523" stop-color="#319a44"/><stop offset=".6563" stop-color="#349d47"/><stop offset=".6602" stop-color="#36a14a"/><stop offset=".6641" stop-color="#39a44d"/><stop offset=".668" stop-color="#3ba851"/><stop offset=".6719" stop-color="#3eab54"/><stop offset=".6758" stop-color="#41af57"/><stop offset=".6797" stop-color="#43b25b"/><stop offset=".6836" stop-color="#46b65e"/><stop offset=".6875" stop-color="#49b962"/><stop offset=".6914" stop-color="#4bbc65"/><stop offset=".6953" stop-color="#4ebf67"/><stop offset=".6992" stop-color="#4cbd65"/><stop offset=".7031" stop-color="#4bbb62"/><stop offset=".707" stop-color="#4ab960"/><stop offset=".7109" stop-color="#48b85e"/><stop offset=".7148" stop-color="#47b65b"/><stop offset=".7188" stop-color="#46b459"/><stop offset=".7227" stop-color="#44b256"/><stop offset=".7266" stop-color="#43b054"/><stop offset=".7305" stop-color="#42ae52"/><stop offset=".7344" stop-color="#41ad50"/><stop offset=".7383" stop-color="#3fab4d"/><stop offset=".7422" stop-color="#3ea94b"/><stop offset=".7461" stop-color="#3da749"/><stop offset=".75" stop-color="#3ca647"/><stop offset=".7539" stop-color="#3ba445"/><stop offset=".7578" stop-color="#39a243"/><stop offset=".7617" stop-color="#38a141"/><stop offset=".7656" stop-color="#379f3f"/><stop offset=".7695" stop-color="#369d3d"/><stop offset=".7734" stop-color="#359b3b"/><stop offset=".7773" stop-color="#349a39"/><stop offset=".7813" stop-color="#339837"/><stop offset=".7852" stop-color="#329735"/><stop offset=".7891" stop-color="#309533"/><stop offset=".793" stop-color="#339735"/><stop offset=".7969" stop-color="#359a38"/><stop offset=".8008" stop-color="#379d3b"/><stop offset=".8047" stop-color="#3aa13e"/><stop offset=".8086" stop-color="#3da441"/><stop offset=".8125" stop-color="#40a745"/><stop offset=".8164" stop-color="#43ab48"/><stop offset=".8203" stop-color="#46ae4c"/><stop offset=".8242" stop-color="#49b24f"/><stop offset=".8281" stop-color="#4cb553"/><stop offset=".832" stop-color="#4fb957"/><stop offset=".8359" stop-color="#52bd5b"/><stop offset=".8398" stop-color="#55bf5d"/><stop offset=".8438" stop-color="#57c260"/><stop offset=".875" stop-color="#57c260"/><stop offset="1" stop-color="#57c260"/></linearGradient></defs><g clip-path="url(#a)"><g clip-path="url(#b)" clip-rule="evenodd"><path d="M103.543 393.0273V32.3516h331.3945v360.6757zm0 0" fill="url(#c)"/></g></g><path d="M260.6758 251.4336c0 3.2773-.6133 6.2031-1.8164 8.7773-1.2227 2.5547-2.9063 4.7422-5.0547 6.5391-2.1484 1.7773-4.6836 3.129-7.5938 4.0352-2.9257.9062-6.0547 1.3515-9.4257 1.3515-2.3516 0-4.5352-.2031-6.5352-.5937-2.0195-.4063-3.8164-.9063-5.3867-1.4805-1.5742-.5742-2.8906-1.1836-3.9649-1.7969-1.0547-.6289-1.8164-1.1484-2.2226-1.5898-.4258-.4258-.7227-.9844-.9258-1.6485-.2031-.668-.2969-1.5546-.2969-2.668 0-.7968.039-1.4609.1133-1.9804.0742-.5195.1836-.9453.3125-1.2578.1484-.336.336-.5586.5547-.6875.2226-.129.4648-.1836.7617-.1836.5 0 1.2227.3125 2.1484.9258.9063.6094 2.0899 1.2773 3.5547 2 1.4453.7031 3.1836 1.3867 5.2422 2.0156 2.0352.6328 4.4063.9453 7.0703.9453 2.0391 0 3.8907-.2773 5.5743-.8125 1.6875-.539 3.1328-1.2969 4.3359-2.2969 1.2226-.9804 2.1484-2.203 2.7969-3.6484.6445-1.4453.9804-3.0937.9804-4.9258 0-1.9804-.4453-3.6836-1.3515-5.0937-.9102-1.4063-2.0938-2.6485-3.5742-3.7227-1.5-1.0547-3.1875-2.0351-5.0743-2.9258-1.9062-.8867-3.8515-1.7773-5.832-2.703-1.9844-.9259-3.9258-1.9454-5.7969-3.0743-1.8906-1.1094-3.5742-2.4258-5.0547-3.9453-1.4843-1.5156-2.6875-3.293-3.5937-5.3477-.9258-2.039-1.3906-4.4844-1.3906-7.336 0-2.9452.539-5.5546 1.5937-7.8515 1.0742-2.2773 2.5547-4.2031 4.4453-5.7578 1.9063-1.5547 4.164-2.7422 6.7774-3.5547 2.6289-.8164 5.4453-1.2226 8.4804-1.2226 1.5547 0 3.1094.1289 4.6836.4062 1.5743.2774 3.0586.629 4.4453 1.0938 1.3907.4453 2.629.961 3.7227 1.5156 1.0742.5586 1.7969 1.0195 2.129 1.3555.3515.3515.5741.6093.6874.8125.1094.203.1836.4648.2578.7617.0742.3125.129.6836.168 1.1289.0351.4258.0547.9805.0547 1.6836 0 .6484-.0195 1.2226-.0742 1.7422-.0547.5-.1485.9257-.2579 1.2773-.0937.332-.2617.5899-.4453.7578-.203.168-.4257.2422-.6875.2422-.4062 0-1.0156-.2617-1.8672-.7617-.8554-.5156-1.8906-1.0742-3.1328-1.7188-1.2187-.6328-2.6836-1.207-4.3672-1.7226-1.668-.539-3.5585-.7969-5.668-.7969-1.9452 0-3.6484.2578-5.0937.7774-1.4414.5351-2.6484 1.2226-3.5898 2.0937-.9258.8672-1.6328 1.8867-2.1133 3.0742-.461 1.2031-.7031 2.461-.7031 3.793 0 1.9453.4453 3.6328 1.3515 5.039.9063 1.4063 2.1133 2.6485 3.6133 3.7383 1.5156 1.0938 3.2188 2.0743 5.1446 2.9844 1.9101.9063 3.871 1.8125 5.871 2.7383 1.9805.9258 3.9454 1.9258 5.8516 3.039 1.9258 1.0899 3.629 2.4063 5.1484 3.9063 1.5 1.5 2.7032 3.2578 3.629 5.3164.9257 2.0352 1.3906 4.4414 1.3906 7.2383zm57.6094-6.6484c0 3.9843-.5196 7.6484-1.5743 11-1.039 3.3359-2.6093 6.2226-4.6836 8.6484-2.0742 2.4258-4.6875 4.3164-7.7968 5.668-3.129 1.3515-6.7618 2.0351-10.8711 2.0351-4.0196 0-7.5196-.5937-10.5-1.7969-2.9805-1.1836-5.461-2.9257-7.4453-5.203-1.9805-2.2774-3.461-5.0548-4.4414-8.297-.9844-3.2578-1.4649-6.9414-1.4649-11.0703 0-3.9843.5195-7.6484 1.539-10.9843 1.0352-3.3516 2.59-6.2383 4.6641-8.6641 2.0743-2.4258 4.668-4.2969 7.7774-5.6484 3.1133-1.332 6.7422-2 10.8906-2 4.0195 0 7.5195.5937 10.5 1.7968 2.9805 1.1836 5.461 2.9258 7.4414 5.2032 1.9844 2.2773 3.4844 5.0351 4.4844 8.2968.9805 3.2578 1.4805 6.9258 1.4805 11.0157zm-9.332.5742c0-2.6485-.2423-5.1485-.7423-7.5-.4804-2.3516-1.2968-4.4063-2.4257-6.1836-1.1094-1.7774-2.6485-3.1836-4.5743-4.2031-1.9062-1.0391-4.3125-1.5547-7.1836-1.5547-2.6484 0-4.9257.461-6.8359 1.4062-1.9062.9453-3.461 2.2774-4.7031 4-1.2383 1.7227-2.1485 3.7578-2.7383 6.1094-.6133 2.3516-.9102 4.9258-.9102 7.7031 0 2.6875.2422 5.207.7422 7.5586.4805 2.3516 1.297 4.4063 2.4453 6.164 1.1485 1.7423 2.6836 3.1485 4.5899 4.168 1.9258 1.0352 4.336 1.5547 7.207 1.5547 2.6094 0 4.8672-.4648 6.793-1.4062 1.9258-.9453 3.5-2.2617 4.7422-3.9649 1.2422-1.703 2.1484-3.7382 2.7226-6.0898.5743-2.3555.8711-4.9453.8711-7.7617zm44.203 25.7773l-6.5 17.9805c-.2226.5742-.7812 1.0195-1.668 1.336-.871.3124-2.2226.4609-4.039.4609-.9414 0-1.7031-.0352-2.2773-.129-.5742-.0937-1.0156-.2578-1.332-.4648-.297-.2187-.4649-.5156-.5-.8672-.0352-.371.0546-.7969.2578-1.3164l6.7421-17c-.332-.1484-.6484-.3867-.9257-.7031-.297-.332-.5-.668-.5938-1.0352l-17.4258-46.668c-.2968-.7577-.4257-1.371-.4257-1.7968 0-.4414.1289-.7774.4257-1.0352.297-.2578.7618-.4257 1.4102-.5195.6484-.0937 1.5156-.1289 2.6094-.1289 1.0742 0 1.9257.0195 2.5546.0742.6133.0547 1.0938.168 1.4649.3164.3516.129.6094.3516.7773.6094.168.2773.332.6484.5196 1.1094l13.9414 39.1875h.168l13.4453-39.3906c.2226-.7032.4804-1.1485.7968-1.332.293-.2032.7578-.3516 1.3672-.4454.629-.0937 1.5195-.1289 2.668-.1289 1.0195 0 1.8515.0352 2.5.129.6484.0937 1.1289.2616 1.4258.5194.3164.2578.461.5938.461 1.0352 0 .4258-.1095.9844-.3126 1.6328zm63.1836-1.2969c0 .4258-.1484.7618-.4257.9844-.297.2188-.6875.3672-1.207.4805-.5.1094-1.2384.164-2.2227.164-.9258 0-1.6836-.0546-2.2383-.164-.5547-.1133-.9649-.2617-1.2227-.4805-.2578-.2226-.3906-.539-.3906-.9844v-4.8867c-2.1289 2.2774-4.5 4.0547-7.1289 5.3125-2.6289 1.2422-5.4062 1.8711-8.332 1.8711-2.5742 0-4.9063-.332-6.9805-1-2.0742-.664-3.8516-1.6484-5.3164-2.9062-1.461-1.2578-2.6094-2.832-3.4258-4.668-.8125-1.8516-1.2226-3.9414-1.2226-6.2969 0-2.7578.5586-5.1445 1.6875-7.164 1.1093-2.0391 2.7226-3.7227 4.832-5.0547 2.0937-1.336 4.668-2.3516 7.7031-3.0196 3.039-.668 6.4649-1 10.2578-1h6.7422v-3.8164c0-1.8672-.2031-3.5351-.5937-5-.4063-1.4414-1.0352-2.6484-1.9258-3.6093-.8867-.9649-2.0352-1.6836-3.4414-2.168-1.4102-.5-3.1485-.7383-5.207-.7383-2.2032 0-4.1836.2578-5.9258.7969-1.7578.5351-3.293 1.1094-4.6094 1.7578-1.3164.6484-2.4258 1.2227-3.3164 1.7578-.8672.539-1.5352.7969-1.961.7969-.2968 0-.5546-.0742-.7578-.2227-.2226-.1289-.4101-.3515-.5742-.6484-.168-.2774-.2773-.6484-.3515-1.0899-.0743-.4648-.1133-.9453-.1133-1.5 0-.8906.0547-1.6132.1875-2.1328.1289-.5156.4414-1.0156.9258-1.4804.4804-.461 1.332-1.0196 2.5156-1.664 1.1875-.633 2.5742-1.2227 4.1289-1.7618 1.539-.5195 3.2422-.961 5.0937-1.3125 1.832-.3516 3.7032-.5195 5.5743-.5195 3.5 0 6.4804.3867 8.9453 1.1835 2.461.797 4.4414 1.9844 5.961 3.5196 1.5194 1.5351 2.6132 3.4453 3.2968 5.7226.6836 2.2774 1.039 4.9453 1.039 7.9805zm-8.8906-22.3671h-7.6484c-2.4453 0-4.5742.203-6.3867.6289-1.797.4062-3.297 1.0351-4.5 1.8515-1.1875.8125-2.0586 1.7774-2.6329 2.9258-.5546 1.1484-.832 2.461-.832 3.9453 0 2.5352.7969 4.5547 2.4063 6.0547 1.6132 1.5 3.8515 2.2578 6.7617 2.2578 2.332 0 4.5195-.5898 6.5156-1.7969 2-1.1836 4.1133-3.0156 6.3164-5.4804zm0 0" fill="#4e4a3d"/><g clip-path="url(#d)"><g clip-path="url(#e)" clip-rule="evenodd"><path d="M368.5078 262.2188v-145.254h124.8125v145.254zm0 0" fill="url(#f)"/></g></g></svg>
